<svg xmlns="http://www.w3.org/2000/svg" width="112" height="112" viewBox="0 0 112 112">
    <defs>
        <linearGradient id="epug2pxh8a" x1="-53.17%" x2="213.165%" y1="22.943%" y2="88.324%">
            <stop offset="1%"/>
            <stop offset="8%" stop-opacity=".69"/>
            <stop offset="21%" stop-opacity=".32"/>
            <stop offset="100%" stop-opacity="0"/>
        </linearGradient>
        <linearGradient id="268guo2zjb" x1="42.843%" x2="76.733%" y1="39.152%" y2="80.739%">
            <stop offset="1%"/>
            <stop offset="8%" stop-opacity=".69"/>
            <stop offset="21%" stop-opacity=".32"/>
            <stop offset="100%" stop-opacity="0"/>
        </linearGradient>
        <linearGradient id="kyhonfoamc" x1="57.786%" x2="29.987%" y1="33.525%" y2="89.938%">
            <stop offset="1%"/>
            <stop offset="8%" stop-opacity=".69"/>
            <stop offset="21%" stop-opacity=".32"/>
            <stop offset="100%" stop-opacity="0"/>
        </linearGradient>
        <linearGradient id="7r322y1jxd" x1="39.992%" x2="72.179%" y1="41.501%" y2="66.883%">
            <stop offset="1%"/>
            <stop offset="8%" stop-opacity=".69"/>
            <stop offset="21%" stop-opacity=".32"/>
            <stop offset="100%" stop-opacity="0"/>
        </linearGradient>
        <linearGradient id="cv2c2iiube" x1="62.846%" x2="18.298%" y1="14.567%" y2="136.056%">
            <stop offset="1%"/>
            <stop offset="8%" stop-opacity=".69"/>
            <stop offset="21%" stop-opacity=".32"/>
            <stop offset="100%" stop-opacity="0"/>
        </linearGradient>
        <linearGradient id="iwakl5gvqf" x1="61.638%" x2="9.908%" y1="40.213%" y2="80.065%">
            <stop offset="1%"/>
            <stop offset="8%" stop-opacity=".69"/>
            <stop offset="21%" stop-opacity=".32"/>
            <stop offset="100%" stop-opacity="0"/>
        </linearGradient>
        <linearGradient id="6sf1uwdyag" x1="43.264%" x2="92.336%" y1="4.733%" y2="333.563%">
            <stop offset="1%"/>
            <stop offset="8%" stop-opacity=".69"/>
            <stop offset="21%" stop-opacity=".32"/>
            <stop offset="100%" stop-opacity="0"/>
        </linearGradient>
        <linearGradient id="d73l1tza3h" x1="45.715%" x2="67.144%" y1="33.992%" y2="88.647%">
            <stop offset="1%"/>
            <stop offset="8%" stop-opacity=".69"/>
            <stop offset="21%" stop-opacity=".32"/>
            <stop offset="100%" stop-opacity="0"/>
        </linearGradient>
        <linearGradient id="w22jg5v6wi" x1="-62.521%" x2="290.265%" y1="57.956%" y2="31.323%">
            <stop offset="1%"/>
            <stop offset="8%" stop-opacity=".69"/>
            <stop offset="21%" stop-opacity=".32"/>
            <stop offset="100%" stop-opacity="0"/>
        </linearGradient>
        <linearGradient id="j4bnzkhayj" x1="-246.363%" x2="832.643%" y1="-211.429%" y2="740.536%">
            <stop offset="1%"/>
            <stop offset="8%" stop-opacity=".69"/>
            <stop offset="21%" stop-opacity=".32"/>
            <stop offset="100%" stop-opacity="0"/>
        </linearGradient>
    </defs>
    <g fill="none" fill-rule="evenodd">
        <g>
            <g>
                <g>
                    <g transform="translate(-264 -736) translate(0 544) translate(264 192) translate(0 17.043)">
                        <path fill="#FBB451" fill-rule="nonzero" d="M48.449 4.078c-.875.406-1.734.846-2.577 1.33C36.01 11.038 29.108 21.61 18.31 25.121c-2.923.951-6.061 1.213-8.423 3.293-1.705 1.56-3.188 3.348-4.408 5.312-2.581 4.07-4.294 8.633-5.031 13.4-1.476 9.232.589 19.628 7.911 25.953 5.503 4.758 13.693 4.998 20.586 3.711 3.954-.735 7.743-2.17 11.657-3.114 6.843-1.645 13.962-1.772 20.86-.373 4.548.924 8.944 2.515 13.496 3.49 3.27.705 6.675 1.096 10.013.662 3.202-.415 5.672-1.948 8.589-3.185 5.549-2.36 11.166-5.37 14.702-10.445 2.721-3.977 3.978-8.78 3.556-13.585-.46-4.797-2.417-9.327-5.592-12.944-1.408-1.625-3.249-3.06-3.936-5.127-.687-2.068-.795-4.481-1.01-6.602-.466-4.65-1.024-9.432-3.282-13.52-2.509-4.542-6.954-7.795-11.803-9.626C81.345.591 76.102.068 70.92.006 63.25-.07 55.375.852 48.45 4.078z" opacity=".18"/>
                        <path fill="url(#epug2pxh8a)" fill-rule="nonzero" d="M99.624 44.63l-5.215 3.694-23.153 16.32c-1.778 1.286-3.63 2.465-5.546 3.533-1.562.847-2.454 2.462-4.344 2.893-.938.164-1.9.147-2.831-.05-1.525-.248-3.024-.63-4.482-1.14-.178-.062-.433-.1-.512.073-.08.172.35.154.2.037-13.575-1.847-26.544-6.77-39.995-9.356-.321-.06-.564-.325-.596-.651-.032-.326.154-.634.458-.755 1.082-.444 2.263-.616 3.457-.85 2.147-.397 4.264-.785 6.405-1.135 4.315-.75 8.672-1.235 13.046-1.453 7.264-.308 14.595.47 21.78-.659 6.825-1.07 13.248-3.807 19.598-6.546 1.534-.658 3.095-1.341 4.294-2.499.942-.907 1.697-2.105 2.896-2.702 1.246-.615 2.76-.507 4.098-.446 3.528.157 7.013.877 10.442 1.693z"/>
                        <path fill="#FBB451" fill-rule="nonzero" d="M14.335 56.052l30.32-13.234c.656-.33 1.397-.454 2.125-.354l37.5 3.198c.718.101.59 3.197 0 3.693L62.133 68.27c-1.354 1.198-3.203 1.664-4.96 1.249L14.6 59.132c-.543-.132-.776-2.828-.266-3.08z"/>
                        <path fill="url(#268guo2zjb)" fill-rule="nonzero" d="M14.335 56.052l30.32-13.234c.656-.33 1.397-.454 2.125-.354l37.5 3.198c.718.101.59 3.197 0 3.693L62.133 68.27c-1.354 1.198-3.203 1.664-4.96 1.249L14.6 59.132c-.543-.132-.776-2.828-.266-3.08z"/>
                        <path fill="#FBB451" fill-rule="nonzero" d="M84.29 47.16L62.142 66.076c-1.353 1.201-3.202 1.668-4.96 1.253l-42.58-10.39c-.544-.132-.614-.994-.108-1.25l11.669-6.607 3.068-1.73 9.328-5.26c.657-.33 1.398-.453 2.126-.353l43.227 3.773c.718.086.957 1.154.378 1.65z"/>
                        <path fill="url(#kyhonfoamc)" fill-rule="nonzero" d="M40.682 42.769L80.194 48.632 68.032 58.541 27.482 50.309z"/>
                        <path fill="url(#7r322y1jxd)" fill-rule="nonzero" d="M80.673 49.703c-.117.354-.5.535-.847.674-2.527.95-5.103 1.764-7.718 2.437-2.481.686-5.07 1.379-7.604.923-.318-.083-.648-.11-.975-.08-.54.099-.94.539-1.36.887-2.094 1.73-5.156 1.335-7.825.849.116-.883.173-1.772.172-2.662-7.138.129-14.274-.36-21.328-1.459-1.534-.237-5.678-.425-6.724-1.702-.13-.14-.234-.303-.307-.48l3.067-1.73c.14.007.277.028.411.065 8.163 2.271 16.646 3.155 25.099 2.616.218-1.105-.92-2.487-.055-3.219.285-.203.63-.304.978-.286 1.295-.05 2.583.22 3.749.788.69.338 1.34.781 2.086.972.73.145 1.477.17 2.215.07 4.706-.352 9.428-.443 14.144-.27.776.028 1.589.074 2.248.483.387.234.721.69.574 1.124z"/>
                        <path fill="url(#cv2c2iiube)" fill-rule="nonzero" d="M36.547 52.765L52.829 56.067 44.409 62.958 27.482 59.148z"/>
                        <path fill="url(#iwakl5gvqf)" fill-rule="nonzero" d="M28.405 60.342c.337.678.948 1.18 1.678 1.375 1.197.29 8.17 2.08 8.17 2.08s1.134.136 1.763-.615l-11.61-2.84z"/>
                        <path fill="#FBB451" fill-rule="nonzero" d="M39.442 41.72l44.596 6.367c.679.095 1.313-.357 1.448-1.031l6.362-32.231c.138-.696-.026-1.418-.45-1.985-.425-.567-1.07-.927-1.774-.988l-44.04-3.875c-1.349-.118-2.544.866-2.69 2.216l-3.452 31.526z"/>
                        <path fill="url(#6sf1uwdyag)" fill-rule="nonzero" d="M39.442 41.72l44.48 6.348c.746.106 1.444-.39 1.592-1.132l6.334-32.111c.138-.696-.026-1.418-.45-1.985-.425-.567-1.07-.927-1.774-.988l-44.04-3.875c-1.349-.118-2.544.866-2.69 2.216l-3.452 31.526z"/>
                        <path fill="#FFF" fill-rule="nonzero" d="M83.231 46.234L89.566 13.714 44.654 9.553 41.083 40.344z"/>
                        <path fill="#FBB451" fill-rule="nonzero" d="M79.538 19.626l-31.5-3.29.714-4.001 31.51 3.29c.538.035 1.037.297 1.371.722.335.425.474.972.384 1.506-.25 1.141-1.322 1.907-2.479 1.773z"/>
                        <path fill="#FFF" fill-rule="nonzero" d="M48.038 16.336L73.483 18.998 74.197 14.985 48.752 12.319z" opacity=".56"/>
                        <ellipse cx="77.658" cy="17.167" stroke="#FFF" stroke-width=".5" rx="1.046" ry="1" transform="rotate(-21.36 77.658 17.167)"/>
                        <path stroke="#FFF" stroke-width=".5" d="M78.311 18.832c-.021-.053-.288-.782-.288-.782"/>
                        <path fill="#FBB451" fill-rule="nonzero" d="M79.234 25.418L47.087 21.965 47.255 21.435 79.4 24.888zM58.516 21.183L47.66 19.893 47.881 18.945 58.74 20.133zM78.836 27.55L46.688 24.097 46.853 23.568 79.001 27.021z" opacity=".18"/>
                        <g fill="#FBB451" fill-rule="nonzero" opacity=".66">
                            <path d="M12.31 2.311L1.454 1.025 1.675.074 12.534 1.262zM32.942 6.737L.794 3.284.963 2.751 33.111 6.207zM32.209 9.205L.061 5.752.23 5.223 32.375 8.676z" opacity=".18" transform="translate(44.48 27.39)"/>
                        </g>
                        <path fill="#FBB451" fill-rule="nonzero" d="M76.066 41.929L43.952 37.722 44.117 37.195 76.231 41.402z" opacity=".18"/>
                        <path fill="#FFF" fill-rule="nonzero" d="M58.246 38.82s-32.853 10.913-37.344 1.117c-4.49-9.795 20.102-12.479 20.102-12.479S12.267 30.329 18.715 42.43c6.448 12.101 41.491.136 41.491.136l-1.96-3.746z"/>
                        <path fill="#FBB451" fill-rule="nonzero" d="M58.323 38.368c.014.448.136.887.356 1.277l.81 1.736c.172.432.415.832.717 1.185.481.487 1.165.716 1.841.615.32-.02.606-.207.755-.492.138-.36-.096-.745-.283-1.08-.503-.902-.717-1.93-.957-2.933-.184-.782-.558-1.884-1.509-1.995-.84-.098-1.68.865-1.73 1.687zM66.575 34.324s-6.951-6.38-13.746 0c0 0 5.252-.68 6.871 2.222l6.875-2.222zM69.415 40.156s-.331 9.448-9.629 9.848c0 0 4.163-3.284 3.233-6.478l6.396-3.37z"/>
                        <path fill="#FFF" fill-rule="nonzero" d="M59.7 36.552s21.918-12.618 34.24-10.599c0 0-2.785 9.085-30.93 17.573l-3.31-6.974z"/>
                        <path fill="url(#d73l1tza3h)" fill-rule="nonzero" d="M93.955 25.947s-2.785 9.085-30.93 17.573l-1.003-2.115-2.322-4.853s19.455-11.214 32.01-10.814c.752.02 1.502.09 2.245.209z"/>
                        <path fill="#FFF" fill-rule="nonzero" d="M93.955 25.947c-1.947 2.564-8.671 7.288-22.494 12.326-.781.287-1.586.574-2.414.861-2.178.755-4.52 1.512-7.025 2.271l-2.319-4.853s2.396-1.443 6.059-3.277c1.932-.97 4.218-2.047 6.69-3.078 6.899-2.877 15.261-5.416 21.503-4.25z"/>
                        <path fill="url(#w22jg5v6wi)" fill-rule="nonzero" d="M77.066 30.659c-1.17.489-2.482.409-3.746.492-.376.015-.748.074-1.11.175-.715.278-1.367.697-1.918 1.232-.074.051-.13.126-.159.212-.008.09.013.18.061.255.28.572.602 1.123.964 1.647.429.615.935 1.27.92 2.028-.044.58-.268 1.13-.641 1.576l-.092.129c-.443.598-.923 1.166-1.439 1.702-.38.394-.135 1.597-1.055 1.308-.8-.25-.411-1.204-.138-1.705l.306-.573.516-.957c.392-.723.791-1.582.46-2.336-.233-.526-.77-.843-1.273-1.126-.95-.565-1.945-1.047-2.976-1.443 1.933-.97 4.218-2.047 6.69-3.078 1.615.136 3.236.16 4.854.07.135.13-.056.32-.224.392z"/>
                        <ellipse cx="74.336" cy="33.564" fill="#FBB451" fill-rule="nonzero" rx="2.522" ry="2.53"/>
                        <ellipse cx="74.336" cy="33.478" fill="url(#j4bnzkhayj)" fill-rule="nonzero" rx="1.718" ry="1.723"/>
                        <path fill="#FCAB9A" fill-rule="nonzero" d="M70.566 28.055c0 .015-.362-.046-.353-.028.082.098.188.174.306.222.434.176.88.324 1.332.443.45.046.669-.382.81-.742.113-.289.23-.578.35-.864.091-.184.15-.384.171-.588.005-.047-.002-.095-.018-.139-.03-.056-.079-.1-.138-.123-.09-.037-.192-.037-.283 0-.165.071-.242.259-.325.419-.193.366-.497.665-.662 1.043-.124.008-.246-.033-.34-.114l-.538-.35c-.025-.021-.056-.035-.089-.04-.053-.003-.105.02-.138.064-.096.117-.154.261-.165.412-.016.078-.016.157 0 .234.019.054.046.105.08.151z"/>
                        <path fill="#FBB451" fill-rule="nonzero" d="M70.98 27.218l.19.117c.027 0 .055.03.064.061.006.023.006.046 0 .068l-.126.56c-.038.251-.128.491-.263.705-.074.102-.614-.274-.706-.323-.23-.153-.43-.346-.592-.57-.075-.09-.132-.195-.169-.307-.055-.284-.012-.578.123-.834.215-.422.577-.213.85.046.194.178.405.338.629.477z"/>
                        <path fill="#FCAB9A" fill-rule="nonzero" d="M67.516 41.196c.01.04.031.077.062.105.437.428.958.76 1.53.975.035.02.074.03.114.031.079-.016.134-.088.129-.169-.008-.078-.037-.152-.083-.215-.113-.18-.239-.349-.377-.508-.13-.107-.212-.26-.23-.428.012-.083.033-.165.064-.243.092-.348-.485-.419-.727-.336-.278.17-.457.463-.482.788z"/>
                        <path fill="#473F47" fill-rule="nonzero" d="M66.105 31.422s-1.046 1.465.031 2.77c.745.904 1.865 1.52 2.896 2.037.18.092.395.166.57.277.34.215.132.397-.049.683-.454.733-.912 1.46-1.374 2.182-.267.366-.45.786-.537 1.231l1.169.357c.63-1.077 1.348-2.099 2.147-3.056.347-.412.795-.923.73-1.495-.08-.53-.313-1.025-.668-1.425l-2.188-2.549-2.727-1.012z"/>
                        <path fill="#FCAB9A" fill-rule="nonzero" d="M71.185 24.42c.037.108.141.194.157.308.015.114-.102.25-.178.376-.077.126-.13.369-.233.538-.02.037-.05.068-.086.086-.034.013-.07.019-.105.019-.14-.004-.277-.027-.41-.068-.024-.015-.053-.021-.08-.018-.024.013-.041.035-.05.061-.156.324-.23.681-.217 1.04 0 .117 0 .265-.095.324-.035.022-.076.033-.117.03-.27 0-.475-.243-.613-.483-.113-.216-.2-.444-.261-.68-.022-.068-.03-.14-.025-.212.014-.084.044-.164.086-.237.136-.267.246-.546.328-.834.072-.378.2-.742.38-1.08.07-.108.173-.19.292-.237.137-.03.279-.023.411.021.277.045.527.195.697.419.052.08.076.489.12.627z"/>
                        <path fill="#FBB451" fill-rule="nonzero" d="M68.495 32.625c-.234.038-.474.024-.703-.04-.335-.067-.677-.087-1.018-.058-.202.05-.4.118-.592.2-.315.085-.651.027-.92-.157v-.142c.046-.412-.126-.997 0-1.394.45-1.585.834-2.77 1.733-4.13.258-.39 1.273-.892 1.69-1.102.095-.05.2-.081.307-.089.123.005.244.039.353.098.37.182.515.52.696.871.21.358.354.751.423 1.16.046.53.233 1.026-.067 1.518-.414.692-1.101 1.16-1.485 1.908-.068.108-.106.232-.11.36 0 .179.125.342.125.52-.025.237-.2.43-.432.477z"/>
                        <path fill="#FCAB9A" fill-rule="nonzero" d="M70.86 30.13c.147.067.307.125.433.175.72.23 1.468.367 2.223.406.95.12 1.911.138 2.866.052.39-.03.767-.149 1.104-.347.098-.065.2-.182.15-.29-.028-.048-.071-.085-.123-.107-.368-.195-.783-.283-1.199-.253 0-.144-.037-.33-.178-.341-.141-.013-.224.181-.307.307-.184.308-.613.342-.957.339-.794.012-1.586-.07-2.362-.243-.388-.093-.765-.23-1.122-.41-.23-.117-.694-.6-.92-.341-.228.258-.44.43-.133.705.157.141.334.259.525.347z"/>
                        <path fill="#FBB451" fill-rule="nonzero" d="M69.664 27.16s1.202 1.701 1.377 1.803c.175.101-1.08 1.339-1.08 1.339s-1.454-1.58-1.623-2.385c-.168-.807.583-1.36 1.326-.758z"/>
                        <path fill="#FC682D" fill-rule="nonzero" d="M71.056 23.626c-.104.144-.263.237-.438.259-.152.024-.304.037-.457.04h-.037c-.011.013-.017.03-.016.046-.013.239-.124.462-.306.616-.024.015-.043.036-.056.061-.012.036-.012.075 0 .111.022.123.022.25 0 .372-.017.125-.075.241-.165.33-.023.015-.039.038-.046.064 0 .023.006.046.018.065.042.129.034.268-.024.39-.234-.18-.536-.245-.822-.178-.087.008-.168.042-.234.099-.41.434-.748.948-1.18 1.366-.185.179-.39.336-.562.53-.259.316-.466.673-.613 1.055-.113.3-.262.584-.445.846-.186.264-.468.442-.785.496-.301.025-.598-.078-.82-.283-.39-.36-.535-.917-.368-1.422.04-.077.051-.165.031-.25-.024-.046-.057-.087-.098-.12-.39-.408-.39-1.053 0-1.461.205-.194.7-.382.727-.702.027-.32-.258-.637-.141-1.006.042-.113.103-.217.18-.308.149-.218.35-.395.584-.514.237-.08.486-.12.736-.12.804-.055 1.644-.308 2.175-.923.12-.16.25-.31.392-.45.167-.129.356-.225.559-.283.486-.186 1.023-.194 1.515-.021.346.145.607.44.709.803.067.158.062.338-.013.492z"/>
                        <path fill="#FFF" fill-rule="nonzero" d="M70.967 24.959c-.118-.004-.235-.014-.352-.03-.034.064.12.307.153.325.033.03.083.03.117 0 .013-.019.022-.041.027-.064l.055-.234"/>
                        <circle cx="70.691" cy="24.343" r="1" fill="#231F20" fill-rule="nonzero"/>
                        <path fill="#FBB451" fill-rule="nonzero" d="M72.663 25.484h.08c.1 0 .18.081.18.18l.001.852c0 .1-.08.18-.18.18h-.08c-.1 0-.181-.08-.181-.18v-.851c0-.1.08-.18.18-.181z" transform="rotate(10.78 72.703 26.09)"/>
                        <path fill="#FCAB9A" fill-rule="nonzero" d="M72.615 25.58c-.165.018-.306.126-.365.28-.052.203.026.416.196.536.169.114.362.185.564.206.06.021.126.012.178-.024.027-.03.044-.066.05-.105.048-.137.067-.283.058-.428-.087-.298-.373-.493-.681-.464z"/>
                        <path fill="#FBB451" fill-rule="nonzero" d="M72.056 24.919l-.03.35c-.021.098.039.193.135.216.588.042 1.163.192 1.696.443.29.164.564.351.822.56.104.084.255 0 .28-.178l.272-1.846c.025-.164-.092-.277-.215-.216-.512.262-1.662.742-2.727.446-.113-.027-.22.08-.233.225z"/>
                        <path fill="#473F47" fill-rule="nonzero" d="M67.59 40.818c-.147.094-.256.238-.307.406-.017.052-.017.108 0 .16.022.046.054.086.095.117.49.438 1.043.802 1.638 1.08.076.039.158.063.243.07.085.01.169-.026.22-.094.03-.05.045-.106.044-.164.006-.213-.074-.42-.223-.573-.149-.152-.353-.238-.566-.236-.075.006-.151.006-.227 0-.07-.018-.137-.05-.196-.092-.161-.095-.313-.204-.454-.327-.095-.11-.184-.227-.267-.347z"/>
                    </g>
                    <path fill="#FA9E1F" fill-rule="nonzero" d="M31.13 37.13v-2.464c0-.411-.131-.741-.392-.991s-.614-.375-1.058-.375h-6.178c-.466 0-.955.042-1.466.125-.51.083-1.032.203-1.565.358l5.429-5.546c.644-.666 1.26-1.32 1.849-1.965.588-.644 1.101-1.31 1.54-1.998.439-.689.788-1.41 1.05-2.165.26-.755.39-1.577.39-2.465 0-1.033-.183-1.97-.549-2.815-.366-.843-.877-1.565-1.532-2.165-.655-.6-1.443-1.063-2.365-1.39-.922-.328-1.937-.491-3.048-.491-1.065 0-2.062.147-2.989.44-.927.295-1.749.734-2.465 1.317-.716.582-1.313 1.31-1.79 2.181-.477.872-.8 1.885-.966 3.04l2.165.383c.2.033.383.05.55.05.377 0 .688-.092.932-.275.244-.183.428-.486.55-.908.255-.844.702-1.515 1.34-2.015.639-.5 1.452-.75 2.44-.75.533 0 1.013.076 1.44.225.428.15.797.375 1.108.675.311.3.55.669.716 1.107.167.439.25.947.25 1.524 0 .633-.086 1.235-.258 1.807-.172.572-.422 1.135-.75 1.69-.327.556-.732 1.116-1.215 1.683-.483.566-1.03 1.16-1.64 1.781l-7.312 7.328c-.255.255-.44.533-.557.833-.117.3-.175.588-.175.866v1.365h16.52z" transform="translate(-264 -736) translate(0 544) translate(264 192)"/>
                </g>
            </g>
        </g>
    </g>
</svg>
