<svg xmlns="http://www.w3.org/2000/svg" width="112" height="112" viewBox="0 0 112 112">
    <defs>
        <linearGradient id="cid06uixia" x1="102.43%" x2="-19.277%" y1="17.218%" y2="119.785%">
            <stop offset="1%"/>
            <stop offset="8%" stop-opacity=".69"/>
            <stop offset="21%" stop-opacity=".32"/>
            <stop offset="100%" stop-opacity="0"/>
        </linearGradient>
    </defs>
    <g fill="none" fill-rule="evenodd">
        <g fill-rule="nonzero">
            <g>
                <g>
                    <g transform="translate(-455 -736) translate(0 544) translate(455 192) translate(10.348 12.174)">
                        <path fill="#FBB451" d="M44.771.597c-11.664 1.558-22.679 8.66-28.31 19.137-1.615 3.015-2.83 6.241-4.576 9.189-1.96 3.256-4.577 6.094-6.639 9.288-6.253 9.607-6.802 22.418-2.258 32.836 3.424 7.856 9.96 12.432 18.496 12.464 4.202.014 8.137-1.479 12.259-1.682 5.688-.272 11.661 1.56 17.126 2.911 6.105 1.51 12.334 2.985 18.611 2.597 6.278-.388 12.714-2.895 16.458-7.986 3.707-5.037 4.254-11.807 3.384-18.016-.87-6.21-3.01-12.166-4.154-18.323-1.319-7.123-1.345-14.554-3.849-21.343C77.48 11.262 67.84 3.525 57.11 1.102 53.057.2 48.88.03 44.77.597z" opacity=".18"/>
                        <path fill="#FBB451" d="M62.713 14.621v55.4c-.002 2.67-2.148 4.836-4.797 4.839H34.128c-2.651 0-4.8-2.166-4.8-4.839v-55.4c0-1.283.504-2.514 1.404-3.422.9-.908 2.12-1.418 3.393-1.419h23.79c1.274 0 2.494.511 3.394 1.42.9.907 1.405 2.138 1.404 3.421z"/>
                        <rect width="32.068" height="63.335" x="29.985" y="10.602" fill="#473F47" rx="5.391"/>
                        <path fill="#FBB451" d="M61.181 15.813V68.08c-.025 2.467-2.029 4.447-4.476 4.424h-21.35c-.78.001-1.547-.2-2.226-.587-1.387-.772-2.25-2.24-2.256-3.837V15.813c.027-2.47 2.033-4.45 4.482-4.424h3.607v.643c.018.863.55 1.63 1.346 1.946.258.102.531.156.808.158h9.917c1.177 0 2.136-.953 2.153-2.139v-.608h3.5c1.156-.006 2.27.434 3.114 1.23.88.825 1.38 1.982 1.381 3.194z"/>
                        <path fill="#020202" d="M61.181 40.613v15.262H48.077c-.363 0-.711-.144-.968-.403-.256-.259-.4-.61-.4-.976V41.994c0-.365.142-.717.398-.976.256-.26.604-.405.967-.405h13.107z" opacity=".1"/>
                        <path fill="#473F47" d="M23.621 53.595h9.764c.169 0 .331.068.45.189.12.12.188.284.188.455 0 .355-.286.643-.638.643H23.62c-.352 0-.638-.288-.638-.643 0-.171.068-.335.187-.455.12-.12.282-.189.451-.189z"/>
                        <path fill="#FCBDBA" d="M25.201 50.154L24.908 52.087 25.716 52.182 26.593 50.135z"/>
                        <path fill="#FBB451" d="M25.955 51.897c-.037-.034-.07-.07-.1-.112-.08.05-.178.062-.269.036l-.4-.07c-.072-.009-.142-.028-.208-.058-.01-.005-.02-.005-.03 0l-.088.168c-.146.298-.231.622-.25.953.763.181 1.548.258 2.333.228.128.016.255-.038.334-.141.03-.07.03-.148 0-.217-.074-.16-.21-.281-.374-.337-.208-.09-.42-.16-.625-.271-.116-.043-.225-.104-.323-.18z"/>
                        <path fill="#FCBDBA" d="M30.601 50.743L30.348 52.681 31.156 52.76 31.993 50.694z"/>
                        <path fill="#020202" d="M58.048 23.701v5.99c0 1.64-1.319 2.968-2.945 2.968H37.86l-6.999 8.103V20.735H55.09c.781-.005 1.532.303 2.087.857.556.553.87 1.306.874 2.093l-.002.016z" opacity=".1"/>
                        <rect width="25.387" height="11.927" x="31.95" y="18.184" fill="#FFF" rx="3.418"/>
                        <path fill="#020202" d="M35.371 28.63c-.099.007-.198-.008-.29-.047-.145-.105-.242-.264-.27-.442-.481-1.495-1.475-2.955-2.96-3.403-.388 1.596-.359 3.256-.329 4.904 0 .44.048.941.396 1.202.228.14.494.21.761.198 1.689.062 3.366-.301 4.88-1.056.458-.228 1.395-1.12.523-1.41-.27-.09-.848.045-1.128.048l-1.583.005z" opacity=".1"/>
                        <ellipse cx="56.869" cy="18.144" fill="#FBB451" rx="2.121" ry="2.138"/>
                        <ellipse cx="56.869" cy="18.144" fill="#020202" opacity=".28" rx="2.121" ry="2.138"/>
                        <path fill="#FBB451" d="M37.546 21.994h13.786c.322 0 .584.264.584.59 0 .325-.262.588-.584.588H37.546c-.322 0-.584-.263-.584-.589 0-.325.262-.589.584-.589z"/>
                        <rect width="14.953" height="1.178" x="36.962" y="25.134" fill="#FBB451" rx=".589"/>
                        <path fill="#473F47" d="M25.131 36.686L26.329 43.411 25.131 50.646 27.075 50.795 29.907 42.648 28.946 36.192z"/>
                        <path fill="#473F47" d="M31.84 36.192L33.998 45.142 32.251 51.308 30.526 51.218 30.766 45.959 27.721 37.46z"/>
                        <path fill="#FCBDBA" d="M37.794 28.77c.259-.154.537-.274.826-.355.092-.04.197-.033.283.019.045.042.075.099.084.16.045.197.03.404-.046.592.327.18.669.332 1.023.45.15.026.281.113.363.242.045.135.004.285-.105.377-.107.087-.235.145-.371.168-.889.21-2.334 0-2.544-1.069-.046-.233.037-.271.223-.41.086-.062.173-.12.264-.173zM31.11 20.51c.204.407.334.847.385 1.3.047.46-.15.913-.52 1.189-.11.052-.212.118-.306.195-.323.336.048.947-.14 1.381-.152.296-.502.427-.808.301-.296-.135-.515-.397-.598-.713-.083-.316-.12-.642-.11-.97l-.032-1.945c-.046-.432.021-.869.194-1.267.236-.415.683-.66 1.157-.635.48.07.617.781.778 1.164z"/>
                        <path fill="#FFF" d="M37.84 30.217s-3.699 3.33-3.963 3.33c-.263 0-1.903-2.093-1.903-2.093l-.134 4.738c-.458.27-.934.508-1.424.711-.808.332-1.812.638-2.692.543-1.798-.165-2.59-.773-2.59-.773L26.24 25.51s2.095-1.517 2.81-1.286c.513.092 1.037.092 1.549 0 1.033-.138 2.091 1.286 2.091 1.286l1.373 4.554 3.23-1.156c.434.28.651.8.547 1.308z"/>
                        <path fill="#FC682D" d="M31.52 18.415c.024-.245-.033-.491-.162-.7-.25-.35-.757-.383-1.174-.288-.287.08-.564.19-.829.326-.193.081-.404.109-.611.079-.55-.008-1.083.193-1.494.561-.56.543-.695 1.333-.751 2.076-.062.842.315 1.536.859 2.171.47.56 1.321 1.107 1.932.402.27-.36.394-.81.345-1.26-.303-.024-.555-.243-.622-.542-.046-.184.018-.379.164-.5.09-.054.196-.07.297-.046.101.025.188.09.242.18.016.028.028.058.037.09.088-.18.152-.37.189-.565.072-.187.307-.35.46-.225.089.073.143.228.256.203.038-.013.07-.038.094-.07.223-.217.412-.467.56-.741.134-.325.205-.674.207-1.026-.002-.035 0-.081 0-.125z"/>
                        <path fill="#FC682D" d="M24.251 17.992c-.796-.099-1.569.314-1.935 1.034-.428.882-.121 1.921-.051 2.9.131.7-.235 1.399-.883 1.683-.687.415-1.473.695-2.022 1.284-.431.484-.686 1.103-.721 1.753-.036.271.011.548.134.792.121.18.278.331.46.445 1.022.75 2.3 1.053 3.546.841 1.222-.252 2.323-1.207 2.581-2.442.27-1.302-.385-2.597-.632-3.902-.095-.31-.059-.644.1-.926.204-.27.586-.341.88-.518 1.61-.952-.278-2.776-1.457-2.944z"/>
                        <rect width="1.246" height="1.256" x="25.904" y="19.259" fill="#FBB451" rx=".623"/>
                        <path fill="#FBB451" d="M31.39 52.472c-.038-.033-.072-.07-.102-.111-.08.05-.178.065-.27.04l-.403-.06c-.072-.007-.142-.026-.207-.056h-.03l-.084.17c-.139.301-.218.627-.231.959.768.165 1.555.225 2.34.176.127.015.253-.041.328-.147.03-.069.03-.147 0-.217-.078-.156-.215-.274-.38-.328-.21-.084-.425-.152-.63-.25-.118-.043-.229-.103-.331-.176zM31.562 54.874h-1.238l-.99 2.694h-5.115l.99-2.694h-1.238L15.276 78.56h1.239l.861-2.342h5.115l-.862 2.342h1.239l.861-2.342h.035v-.1l7.734-21.064v23.506h1.24V54.874h-1.176zm-2.568 3.606l-1.286 3.528h-5.115l1.292-3.528h5.11zm-8.027 7.951l1.29-3.511h5.114l-1.29 3.511h-5.114zm4.773.92l-1.287 3.512h-5.115l1.29-3.512h5.112zm-8.025 7.954l1.287-3.528h5.115l-1.293 3.528h-5.109z"/>
                        <path fill="url(#cid06uixia)" d="M31.562 54.874h-1.238l-.99 2.694h-5.115l.99-2.694h-1.238L15.276 78.56h1.239l.861-2.342h5.115l-.862 2.342h1.239l.861-2.342h.035v-.1l7.734-21.064v23.506h1.24V54.874h-1.176zm-2.568 3.606l-1.286 3.528h-5.115l1.292-3.528h5.11zm-8.027 7.951l1.29-3.511h5.114l-1.29 3.511h-5.114zm4.773.92l-1.287 3.512h-5.115l1.29-3.512h5.112zm-8.025 7.954l1.287-3.528h5.115l-1.293 3.528h-5.109z"/>
                        <rect width="21.374" height="15.259" x="46.71" y="38.971" fill="#FFF" rx="1.588"/>
                        <rect width="9.785" height="1.506" x="35.038" y="40.762" fill="#020202" opacity=".1" rx=".753"/>
                        <rect width="9.785" height="1.506" x="35.038" y="43.75" fill="#020202" opacity=".1" rx=".753"/>
                        <rect width="9.785" height="1.506" x="35.038" y="46.738" fill="#020202" opacity=".1" rx=".753"/>
                        <path fill="#FBB451" d="M64.815 52.122L49.978 52.122 49.978 41.08 50.247 41.08 50.247 51.85 64.815 51.85z"/>
                        <path fill="#FBB451" d="M50.152 48.154L50.012 47.921 53.754 45.604 59.254 46.461 64.113 43.633 64.247 43.867 59.305 46.743 59.259 46.735 53.811 45.886z"/>
                        <circle cx="53.948" cy="45.772" r="1" fill="#FBB451"/>
                        <circle cx="59.281" cy="46.599" r="1" fill="#FBB451"/>
                        <circle cx="64.08" cy="43.84" r="1" fill="#FBB451"/>
                        <circle cx="53.948" cy="45.772" r="1" fill="#020202" opacity=".28"/>
                        <circle cx="59.281" cy="46.599" r="1" fill="#020202" opacity=".28"/>
                        <circle cx="64.08" cy="43.84" r="1" fill="#020202" opacity=".28"/>
                    </g>
                    <path fill="#FA9E1F" d="M18.667 36.522c1.098 0 2.139-.16 3.122-.478.983-.318 1.847-.788 2.594-1.408.747-.621 1.34-1.387 1.78-2.299.439-.911.658-1.96.658-3.146 0-1.395-.351-2.553-1.054-3.476-.703-.922-1.768-1.609-3.196-2.06.593-.197 1.123-.444 1.59-.74.467-.297.862-.66 1.186-1.088.324-.428.571-.93.741-1.507.17-.577.256-1.244.256-2.001 0-.868-.168-1.675-.503-2.422-.335-.747-.815-1.398-1.441-1.952-.626-.555-1.381-.989-2.265-1.302-.884-.313-1.876-.47-2.974-.47-1.054 0-2.04.146-2.957.437-.917.291-1.73.725-2.438 1.302-.708.576-1.299 1.296-1.77 2.158-.473.862-.792 1.864-.956 3.006l2.141.38c.198.032.385.049.56.049.374 0 .676-.091.906-.272.231-.181.412-.48.544-.898.253-.802.697-1.458 1.334-1.969.637-.51 1.44-.766 2.406-.766 1.065 0 1.905.289 2.52.865.615.577.922 1.43.922 2.562 0 .527-.076 1.01-.23 1.45-.154.439-.426.815-.816 1.128-.39.313-.914.557-1.573.733-.659.176-1.488.27-2.487.28v2.9c1.208 0 2.171.093 2.89.28.72.186 1.272.444 1.656.774.385.33.637.727.758 1.194.121.467.181.986.181 1.557 0 .45-.085.898-.255 1.342-.17.445-.428.849-.774 1.211-.346.363-.777.656-1.293.882-.517.225-1.12.337-1.812.337-.615 0-1.145-.09-1.59-.272-.445-.18-.832-.417-1.162-.708-.329-.291-.612-.623-.848-.997-.236-.373-.453-.752-.65-1.136-.121-.23-.294-.407-.52-.527-.225-.121-.48-.182-.766-.182-.318 0-.631.066-.939.198l-1.795.741c.33 1.022.725 1.922 1.186 2.702.461.78 1.021 1.439 1.68 1.977.66.538 1.433.944 2.323 1.219.89.274 1.933.412 3.13.412z" transform="translate(-455 -736) translate(0 544) translate(455 192)"/>
                </g>
            </g>
        </g>
    </g>
</svg>
