<svg xmlns="http://www.w3.org/2000/svg" width="112" height="112" viewBox="0 0 112 112">
    <defs>
        <linearGradient id="dwco1encoa" x1="50.524%" x2="49.182%" y1="-8.167%" y2="142.55%">
            <stop offset="1%"/>
            <stop offset="8%" stop-opacity=".69"/>
            <stop offset="21%" stop-opacity=".32"/>
            <stop offset="100%" stop-opacity="0"/>
        </linearGradient>
        <linearGradient id="xn96prkgnb" x1="0%" x2="100.022%" y1="50.016%" y2="50.016%">
            <stop offset="1%"/>
            <stop offset="8%" stop-opacity=".69"/>
            <stop offset="21%" stop-opacity=".32"/>
            <stop offset="100%" stop-opacity="0"/>
        </linearGradient>
        <linearGradient id="e9wkkf8wmc" x1="49.932%" x2="50.157%" y1="-12.845%" y2="177.822%">
            <stop offset="1%"/>
            <stop offset="8%" stop-opacity=".69"/>
            <stop offset="21%" stop-opacity=".32"/>
            <stop offset="100%" stop-opacity="0"/>
        </linearGradient>
        <linearGradient id="15gb0erhod" x1="52.335%" x2="43.301%" y1="44.054%" y2="67.578%">
            <stop offset="1%"/>
            <stop offset="8%" stop-opacity=".69"/>
            <stop offset="21%" stop-opacity=".32"/>
            <stop offset="100%" stop-opacity="0"/>
        </linearGradient>
        <linearGradient id="fxvpvpl9ne" x1="115.213%" x2="-85.513%" y1="54.058%" y2="41.875%">
            <stop offset="1%"/>
            <stop offset="8%" stop-opacity=".69"/>
            <stop offset="21%" stop-opacity=".32"/>
            <stop offset="100%" stop-opacity="0"/>
        </linearGradient>
        <linearGradient id="93waca8c7f" x1="59.14%" x2="37.547%" y1="26.148%" y2="82.486%">
            <stop offset="1%"/>
            <stop offset="8%" stop-opacity=".69"/>
            <stop offset="21%" stop-opacity=".32"/>
            <stop offset="100%" stop-opacity="0"/>
        </linearGradient>
        <linearGradient id="r6qk1bnzlg" x1="99.87%" x2="-.022%" y1="50.016%" y2="50.016%">
            <stop offset="1%"/>
            <stop offset="8%" stop-opacity=".69"/>
            <stop offset="21%" stop-opacity=".32"/>
            <stop offset="100%" stop-opacity="0"/>
        </linearGradient>
        <linearGradient id="z8tw6jfewh" x1="50.073%" x2="49.847%" y1="-12.845%" y2="177.822%">
            <stop offset="1%"/>
            <stop offset="8%" stop-opacity=".69"/>
            <stop offset="21%" stop-opacity=".32"/>
            <stop offset="100%" stop-opacity="0"/>
        </linearGradient>
        <linearGradient id="1ahnzvj90i" x1="47.666%" x2="56.681%" y1="44.054%" y2="67.578%">
            <stop offset="1%"/>
            <stop offset="8%" stop-opacity=".69"/>
            <stop offset="21%" stop-opacity=".32"/>
            <stop offset="100%" stop-opacity="0"/>
        </linearGradient>
        <linearGradient id="6yus8erngj" x1="40.857%" x2="62.453%" y1="26.148%" y2="82.486%">
            <stop offset="1%"/>
            <stop offset="8%" stop-opacity=".69"/>
            <stop offset="21%" stop-opacity=".32"/>
            <stop offset="100%" stop-opacity="0"/>
        </linearGradient>
    </defs>
    <g fill="none" fill-rule="evenodd">
        <g fill-rule="nonzero">
            <g>
                <g>
                    <g transform="translate(-648 -736) translate(0 544) translate(648 192) translate(.609 13.391)">
                        <path fill="#FBB451" d="M13.209 11.712C7.375 18.503 4.86 27.497 3.165 36.29 1.418 45.384.375 54.599.044 63.855c-.196 5.432.122 11.526 4.07 15.26 1.477 1.397 3.333 2.316 5.186 3.153 3.303 1.496 6.738 2.817 10.342 3.222 5.972.67 11.906-1.203 17.623-3.063 10.07-3.276 20.54-6.62 31.047-5.295 4.873.615 9.567 2.222 14.41 3.043 4.842.822 10.086.784 14.338-1.674 2.958-1.712 5.19-4.459 6.95-7.388 3.952-6.574 5.819-14.228 6.416-21.88.295-3.778.29-7.606-.442-11.324-.837-4.248-2.597-8.25-4.375-12.198-2.176-4.842-4.431-9.698-7.543-14.002S90.893 3.641 85.954 1.697C76.55-1.997 66.27 1.27 56.769 2.757c-4.854.755-9.876 1.242-14.72.149-2.332-.526-4.203-1.607-6.596-1.692-2.522-.09-5.225.502-7.633 1.196-5.619 1.622-10.793 4.855-14.611 9.302z" opacity=".18"/>
                        <path fill="#FBB451" d="M45.656 35.546H53.641V42.068H45.656z"/>
                        <path fill="url(#dwco1encoa)" d="M45.656 35.546H53.641V42.068H45.656z"/>
                        <rect width="25.197" height="15.951" x="37.569" y="22.166" fill="#FFF" rx="3.954"/>
                        <path fill="#FFF" d="M30.969 41.993H73.381V43.344H30.969z"/>
                        <path fill="#D9DBE2" d="M30.969 42.78H73.381V43.78H30.969z"/>
                        <ellipse cx="54.908" cy="69.446" fill="#FBB451" opacity=".18" rx="45.276" ry="5.216"/>
                        <path fill="#FBB451" d="M88.644 53.294s4.657 15.022 4.151 15.39c-.505.368-.825-.633-.825-.633l-4.697-13.96 1.37-.797zM78.634 55.028l-.044.109-5.306 13.614c-.08.21-.202.403-.357.566-.06.073-.15.118-.244.124-.095.005-.189-.029-.258-.094-.479-.392 4.506-14.364 4.506-14.364l1.703.045zM82.606 54.029s-.167 15.725-.758 15.92c-.591.196-.591-.855-.591-.855l-.201-14.73 1.55-.335z"/>
                        <path fill="url(#xn96prkgnb)" d="M87.812 53.477S92.88 68.04 92.373 68.4c-.507.362-.403-.351-.403-.351l-4.697-13.96.539-.614z"/>
                        <path fill="url(#e9wkkf8wmc)" d="M78.589 55.137l-5.307 13.614c-.08.21-.201.403-.356.566.018-1.56 4.534-14.205 4.534-14.205l1.129.025z"/>
                        <path fill="url(#15gb0erhod)" d="M82.606 54.029s-.167 15.725-.758 15.92c-.591.196-.226-1.185-.226-1.185l.209-14.563.775-.172z"/>
                        <path fill="#2F3653" d="M92.904 49.7c-1.112 2.563-3.612 4.33-6.292 5.124-2.09.618-4.29.713-6.48.588-.613-.033-1.227-.08-1.841-.14-1.072-.108-2.158-.247-3.16-.639-1.003-.392-1.937-1.068-2.446-2.024-.31-.629-.482-1.317-.503-2.018-.105-1.798.464-3.71 1.842-4.855 1.081-.904 2.492-1.255 3.614-2.094 1.255-.942 2.544-1.784 3.873-2.631 1.33-.847 2.678-1.703 4.165-2.242 1.486-.538 3.144-.741 4.647-.264.52.167 1.322.57 2.107 2.492 1.14 2.747 1.656 5.976.474 8.703z"/>
                        <path fill="#FC682D" d="M84.673 31.498c-.534.732-2.16 1.438-2.16 1.438-.188-.723.212-.991.212-.991.417.037.964-.98.785-1.299-.221-.398-.527-.256-.732-.085-.426-.332-.693-.827-.738-1.365-.027-.313.514-1.196-.522-1.58-1.036-.383-2.496 0-2.496 0s-.377-.966.837-1.428c2.724-1.04 5.96.735 5.78 3.787-.048.827-.104 1.766.469 2.363.313.325.755.482 1.171.646.545.211 1.097.467 1.479.911.381.444.544 1.123.24 1.624-.143.24-.393.468-.334.741.042.123.114.233.21.32.625.671 1.027 1.52 1.149 2.429.117.916-.172 1.837-.79 2.522-.837.88-2.176 1.109-3.376.928-.971-.148-1.932-.55-2.592-1.277-1.004-1.11-1.13-2.722-1.409-4.185-.017-.18-.09-.352-.208-.489-.292-.274-.763-.052-1.163-.062-.691-.015-1.155-.773-1.172-1.463-.016-.69.263-1.339.404-2.024.14-.684.097-1.474-.427-1.925-.196-.167-.44-.272-.651-.423-.934-.67-.879-2.215-.082-3.045.797-.83 2.075-1.034 3.209-.837.91.167 2.966.67 3.388 1.507.421.837.057 2.529-.48 3.262z"/>
                        <path fill="#FDBAAC" d="M77.742 35.859l-4.391 4.52-5.829-3.074c-.72-.443-1.553-.666-2.398-.641-.087 0-.205.05-.185.134.02.083.118.09.133.167.015.077-.079.124-.156.14l-1.393.31c-.204.047-.452.143-.463.352.012.141.09.268.209.345.919.765 2.208.932 3.4.822.115-.017.232-.017.348 0 .113.028.222.074.321.135.45.25.887.523 1.308.819 1.143.803 2.166 1.769 3.326 2.549.233.185.512.303.806.343.262-.004.52-.066.755-.182 1.674-.67 3.39-1.385 4.664-2.66.113-.102.205-.225.271-.362.046-.138.068-.284.065-.43.017-.613.01-1.226-.023-1.841.005-.28-.056-.557-.18-.809-.133-.255-.421-.39-.702-.326"/>
                        <path fill="#DEA095" d="M74.965 40.626c-.143.11-.298.202-.46.278-.356.149-.756.12-1.14.11-.584-.015-1.168.02-1.745.104-.144.01-.284.054-.408.129-.125.08-.182.233-.141.375.039.075.097.14.167.186.467.376.97.768 1.566.837.713.093 1.396-.285 2.008-.65l1.282-.738c.192-.094.36-.23.49-.4.178-.276.22-1.048-.215-1.128-.357-.07-1.128.691-1.404.897z"/>
                        <path fill="#FFF" d="M78.388 34.729c.084-.028.17-.046.26-.054.441-.042.943.067 1.387.087.624.027 1.25.042 1.876.022 1.194-.035 3.152-.167 4.22 1.138 1.324 1.612.183 4.446-.741 6.572-.335.793-.513 3.363-.335 5.241 0 0-3.716 1.3-6.985.623l-1.122-4.209c-.062-.217-.256-.448-.351-.656-.26-.563-.448-1.155-.563-1.764-.134-.703-.335-1.873-.033-2.55.045-.103.2-.184.214-.292.018-.151-.18-.402-.243-.538-.204-.438-.368-.894-.49-1.362-.028-.072-.031-.15-.01-.225.029-.058.073-.107.127-.143.49-.394.983-.787 1.506-1.142.357-.246.83-.611 1.283-.748z"/>
                        <path fill="#FDBAAC" d="M82.527 31.75c-.247.79-1.284 2.177-2.469 1.857.285.515.248 1.147-.094 1.626 0 0 .386.982 2.987-.47 0 0-.703-.06-.512-1.507.057-.497.232-.972.512-1.386-.065.063-.159.086-.246.062-.087-.024-.155-.094-.178-.181z"/>
                        <path fill="#DEA095" d="M82.408 32.148s-.57 2.425-1.538 2.323c-.967-.102-.906-1.579-.906-1.579l2.444-.745z"/>
                        <path fill="#FC682D" d="M87.46 36.801c.067-.744-.155-1.485-.62-2.07-.541-.633-1.373-.918-2.148-1.226-.335-.13-.683-.3-.822-.624-.092-.215-.072-.459-.11-.69-.036-.231-.166-.482-.404-.514-.146-.008-.288.042-.397.14-.492.377-.65 1.072-.537 1.683.112.611.448 1.152.797 1.664.348.512.716 1.024.914 1.612.149.447.192.922.3 1.38.242 1.005 1.087 1.608 2.08 1.035.684-.396.899-1.685.947-2.39zM79.85 26.192s-1.576.092-2.045 2.377c-.469 2.285 1.81 2.246 1.81 2.246l1.384-3.964-1.148-.66z"/>
                        <path fill="#FDBAAC" d="M80.902 33.724c-1.428.12-2.295-1.213-2.456-2.954-.016-.191-.023-.385-.023-.584-.003-.568.062-1.134.194-1.686.624-2.678 4.43-1.602 4.43-1.602 2.98 1.338.336 6.62-2.145 6.826z"/>
                        <path fill="#FC682D" d="M79.88 26.838c.372 1.29.87 3.125 2.13 3.833.144.08.41.216.583.18.172-.034.167-.192.324-.334.1-.1.253-.126.38-.065.105.079.163.204.156.335.001.322-.167.62-.442.788-.125.057-.244.125-.357.204-.125.124-.2.29-.21.466-.044.483.196.948.616 1.191.025.017.055.026.085.027.036-.007.07-.027.094-.055l.564-.516c.268-.228.51-.485.721-.768.26-.383.399-.835.402-1.297 0-.21-.084-.42-.08-.621.035-.265.105-.524.209-.77.126-.32.19-.66.19-1.005-.044-.67-.602-1.201-1.203-1.506-.95-.47-2.049-.524-3.11-.536-.212-.013-.424.015-.624.084-.183.102-.258.303-.427.365z"/>
                        <path fill="#FDBAAC" d="M82.408 43.098l1.09 2.394s2.344-2.923 3.236-6.078c.78-2.789-.603-3.49-.603-3.49-1.058-.389-1.776 1.12-2.815 4.166-.573 1.67-.908 3.008-.908 3.008z"/>
                        <path fill="#FDBAAC" d="M83.498 45.487s.042-1.947-.907-2.334c-.95-.386-7.601-1.429-7.601-1.429l-.625.72s6.532 3.766 9.133 3.043z"/>
                        <path fill="#DC9ED5" d="M72.718 50.63l.08-.083c-.323.363-.539.625-.605.705.164-.217.339-.424.525-.621z"/>
                        <path fill="#FBB451" d="M85.452 51.013c-.195 1.133-.968 2.107-1.91 2.768-.943.661-2.044 1.05-3.147 1.384-.651.2-1.057 1.035-1.644 1.381-.214.105-.4.26-.54.452-.215.347-.108.796 0 1.187.498 1.733 1 3.466 1.506 5.198.25.86.502 1.772.264 2.638-.237.865-1.148 1.61-1.997 1.324l-4.978-8.035s-.819-3.234.899-5.984c.741-1.185 6.55-6.076 6.55-6.076 1.485-.216 2.995-.317 4.43-.399.168 1.396.808 2.776.567 4.162z"/>
                        <path fill="#FBB451" d="M80.46 47.245s-5.927 4.824-6.55 6.076c-1.74 3.493-.899 5.984-.899 5.984l-4.352 7c-1.004.022-2.359-.25-2.409-1.258.006-.284.074-.564.198-.819l3.279-8.169c.648-1.62 1.319-3.274 2.357-4.663l.092-.12v-.01l.013-.017c.067-.08.283-.335.606-.705v-.01c.943-1.053 2.782-2.938 4.483-3.683 0 0 1.973.544 3.164.399l.018-.005z"/>
                        <path fill="url(#fxvpvpl9ne)" d="M80.46 47.245s-5.927 4.824-6.55 6.076c-1.74 3.493-.899 5.984-.899 5.984l-4.352 7c-1.004.022-2.359-.25-2.409-1.258.006-.284.074-.564.198-.819l3.279-8.169c.648-1.62 1.319-3.274 2.357-4.663l.092-.12v-.01l.013-.017c.067-.08.283-.335.606-.705v-.01c.943-1.053 2.782-2.938 4.483-3.683 0 0 1.973.544 3.164.399l.018-.005z"/>
                        <path fill="#EB9D80" d="M77.417 68.876c-.389.359-.906.717-.887 1.246-.002.052.012.104.041.147.054.054.127.084.203.084 1.195.132 2.307-.596 3.236-1.361.234-.193.478-.413.534-.711.055-.298-.102-.598-.238-.873-.22-.446-.4-.91-.537-1.389.041.142-.56.648-.662.737-.214.187-.53.323-.698.55-.167.228-.202.503-.334.729-.174.313-.396.597-.658.841zM65.08 66.637c-.42.149-.907.23-1.172.586-.051.063-.082.14-.088.222 0 .221.256.335.472.385.862.176 1.752.052 2.623-.073.283.004.522-.21.549-.49l.343-1.059c.014-.03.018-.065.012-.098-.015-.033-.04-.06-.07-.077-.236-.165-.487-.307-.749-.424-.353-.167-.377-.152-.613.127-.35.41-.8.72-1.307.9z"/>
                        <path fill="#FDBAAC" d="M74.277 41.592c-.688-.11-1.462-.198-2.018.219-.264.227-.48.504-.636.815-.108.186-.219.409-.13.603s.306.254.502.303c.634.154 1.317.298 1.925.06.449-.167.812-.547 1.282-.66.08-.01.157-.037.226-.076.064-.054.11-.127.13-.208.282-.944-.652-.968-1.281-1.056z"/>
                        <path fill="#FBB451" d="M66.906 68.56c-.024.05-.06.091-.107.12-.07.025-.145.025-.214 0-.388-.052-.78-.065-1.172-.04-.801-.012-1.601-.085-2.392-.217-.345-.05-.728-.122-.927-.407-.026-.032-.042-.071-.047-.112.002-.062.026-.122.069-.167.346-.416.802-.726 1.315-.898.19-.08.393-.124.6-.13.208-.004.408.085.545.242.143.181.168.44.323.603.156.162.424.183.658.168.272-.01.543-.041.81-.093.203-.038.502-.177.703-.125.47.129-.031.82-.164 1.056zM80.843 68.893c.01.062.002.125-.023.183-.05.068-.121.116-.203.139-.404.197-.787.435-1.143.711-.763.495-1.563.932-2.392 1.307-.358.168-.768.347-1.138.205-.045-.015-.085-.04-.116-.076-.037-.06-.051-.131-.04-.2.063-.614.294-1.198.67-1.688.129-.196.294-.367.487-.502.195-.136.44-.18.67-.117.249.08.433.313.689.365.256.052.519-.096.735-.253.251-.183.489-.385.71-.604.167-.168.36-.486.585-.566.52-.186.49.785.51 1.096z"/>
                        <path fill="#FFF" d="M87.157 36.873c.165.511.277 1.038.335 1.572l.102.72c.036.149.028.305-.023.45-.12.253-.6.149-.837.187-.425.069-.849.136-1.274.201-.85.13-1.7.256-2.551.375-.045-.432-.034-.868.032-1.297.078-.409.254-.792.355-1.195.082-.335.112-.67.197-1.005.18-.688.59-1.293 1.162-1.715.895-.655 2.21.93 2.484 1.643l.018.064z"/>
                        <path fill="#2F3653" d="M92.904 49.7c-1.112 2.563-3.612 4.33-6.292 5.124-2.09.618-4.29.713-6.48.588 0-.15.087-.24.27-.248 2.097-.106 2.966-2.863 3.595-4.265.63-1.403 1.06-3.166 5.156-4.791 3.99-1.58 3.503-4.553 3.702-3.954.943 2.819 1.23 4.82.049 7.546z"/>
                        <path fill="#FFF" d="M93.19 49.817c-1.111 2.561-3.612 4.33-6.292 5.124-2.09.616-4.895.722-7.084.594 0-.147.405-.363.587-.371 2.098-.106 3.013-3.38 3.643-4.783.63-1.402 1.207-2.226 5.109-4.273 5.83-3.057 1.612-7.215 1.538-7.48 1.398.45 2.176 3.29 2.374 3.89.942 2.818 1.307 4.57.125 7.3z"/>
                        <path fill="#FBB451" d="M85.27 54.493c-1.772.452-3.648.468-5.374 1.08.547-.195 1.694.106 2.303.088.837-.026 1.672-.113 2.496-.263 1.458-.264 3.39-.67 4.592-1.568-.784-.667-3.15.442-4.016.663z" opacity=".23"/>
                        <path fill="#FBB451" d="M86.334 70.129c-.027.017-.057.03-.087.038-.055.015-.112.018-.168.008-.62-.077-3.669-14.591-3.669-14.591l.417-.243c.03-.017.065-.035.095-.048.215-.09.457-.09.67.002.214.092.382.267.464.485v.017c.017.043.03.089.038.135l2.397 13.293s.142.7-.157.904z"/>
                        <path fill="url(#93waca8c7f)" d="M86.402 68.933s-.025.837-.068 1.196c-.027.167-.052.234-.087.038-.3-1.756-2.789-12.534-3.326-14.871.214-.09.456-.09.67.002.214.092.381.267.463.485v.017l2.348 13.133z"/>
                        <path fill="#FBB451" d="M22.14 53.294s-4.65 15.022-4.147 15.39c.502.368.823-.633.823-.633l4.7-13.96-1.377-.797zM32.15 55.028l.043.109 5.306 13.614c.08.21.201.403.357.566.06.073.149.118.244.124.095.005.188-.029.258-.094.485-.392-4.5-14.357-4.5-14.357l-1.709.038zM28.187 54.029s.167 15.725.757 15.92c.589.196.599-.855.599-.855l.2-14.73-1.556-.335z"/>
                        <path fill="url(#r6qk1bnzlg)" d="M22.971 53.477S17.902 68.04 18.41 68.4c.507.362.403-.351.403-.351l4.704-13.96-.546-.614z"/>
                        <path fill="url(#z8tw6jfewh)" d="M32.193 55.137l5.306 13.614c.08.21.201.403.357.566-.017-1.56-4.535-14.205-4.535-14.205l-1.128.025z"/>
                        <path fill="url(#1ahnzvj90i)" d="M28.187 54.029s.167 15.725.757 15.92c.589.196.226-1.185.226-1.185l-.21-14.563-.773-.172z"/>
                        <path fill="#2F3653" d="M17.88 49.7c1.11 2.563 3.611 4.33 6.291 5.124 2.09.618 4.29.713 6.48.588.613-.033 1.224-.08 1.833-.141 1.071-.107 2.158-.246 3.16-.638 1.003-.392 1.937-1.068 2.446-2.024.31-.629.482-1.317.502-2.018.106-1.798-.464-3.71-1.841-4.855-1.082-.904-2.493-1.255-3.614-2.094-1.256-.942-2.545-1.784-3.874-2.631-1.329-.847-2.678-1.703-4.164-2.242-1.487-.538-3.144-.741-4.647-.264-.52.167-1.323.57-2.108 2.492-1.13 2.747-1.647 5.976-.465 8.703z"/>
                        <path fill="#FFF" d="M21.861 40.37c.2.43.357.878.466 1.339.1.562.272 1.115.371 1.682.199 1.138.294 2.292.283 3.447 0 .457 0 .972.327 1.289.22.212.537.28.837.334.59.12 1.124.354 1.715.454.644.093 1.295.133 1.945.117 1.919 0 5.487-.214 5.369-2.889-.115-3.02-.38-6.032-.797-9.026-.144-1.014-.168-2.184-.48-3.16-.258-.822-1.216-.829-2.01-.745l-.15.017c-.154.015-.308.035-.457.053-1.056.11-2.12.142-3.18.094-1.194-.037-3.105-.156-4.279.97-.081.076-.158.159-.23.245-1.166 1.425-.54 3.737.27 5.779z"/>
                        <path fill="#D9DBE2" d="M26.31 40.073c.103 1.34-.277 2.767.426 3.887.032.063.083.115.145.148.101.02.206.008.3-.034.22-.044.446.009.624.144.178.135.29.34.307.563.337-.255.549-.642.58-1.063.016-.233 0-.516.195-.643.25-.168.576.129.63.423.053.295-.031.606.053.894.107.377.483.623.865.703.389.057.783.057 1.172 0 .282-.042.57-.011.837.089.258.122.457.415.378.69-.094.326-.489.44-.823.502l-4.597.857-2.365.442c-.518.095-1.431.552-1.448-.213-.024-1.144-.204-2.28-.533-3.376-.132-.442-.147-.894-.276-1.323-.157-.52-.447-1.019-.624-1.54-.358-1.046-.598-2.129-.718-3.229-.084-.773-.03-1.705.633-2.109.478-.29 1.123-.167 1.573.168.55.407.802 1.046 1.309 1.474.59.503 1.048 1.068 1.245 1.833.058.234.096.473.113.713z" opacity=".43"/>
                        <path fill="#FBB451" d="M28.654 35.301c-.038.05-.067.107-.085.168-.004.065.01.131.038.19.646 1.62 1.051 3.325 1.453 5.022.355 1.493.712 2.998.785 4.531.011.113.003.226-.025.335-.117.378-.61.502-.827.829l-.718-.82c-.047-.049-.084-.106-.11-.168-.022-.087-.022-.178 0-.264.242-1.64-.027-3.311-.41-4.925-.335-1.386-.749-2.774-.724-4.198 0-.168 0-.372-.129-.484-.073-.05-.153-.088-.237-.114-.194-.095-.341-.263-.41-.468-.067-.205-.05-.428.048-.62.153-.002.302-.04.437-.112.137-.07.294-.092.444-.059.331.114.66.846.47 1.157z"/>
                        <path fill="#FFF" d="M21.823 34.349c1.172-1.125 3.085-1.005 4.278-.97 1.061.048 2.124.017 3.18-.093.15-.019.304-.039.458-.054-.631-.258-1.527-.085-2.2-.063-1.02.033-2.04.095-3.058.185-.964.09-2.032.255-2.658.995z"/>
                        <path fill="#D5846C" d="M25.442 30.14c.268.837 1.349 1.644 2.614 1.296 0 0-.502 1.507.126 2.426 0 0-.41 1.05-3.192-.503 0 0 .751-.062.547-1.605-.06-.53-.248-1.039-.547-1.481.07.067.17.092.264.065.094-.028.165-.103.188-.198z"/>
                        <path fill="#EB9D80" d="M26.806 32.087c1.466.432 2.662-.776 3.206-2.564.058-.194.108-.399.15-.606.126-.594.183-1.2.168-1.806-.086-2.928-4.302-2.63-4.302-2.63-3.405.758-1.775 6.856.778 7.606z"/>
                        <path fill="#DC9ED5" d="M35.926 50.313l-.088-.09c.345.388.578.669.648.753-.174-.228-.363-.45-.56-.663z"/>
                        <path fill="#FC682D" d="M23.368 24.685c.254-.53.677-.959 1.203-1.22.482-.255 1.185-.204 1.58-.601.213-.213.255-.536.377-.81.125-.276.335-.506.6-.655.172-.098.364-.155.562-.167.61-.029 1.162.444 1.398 1.004.167-.276.513-.383.837-.376.743.015 1.424.54 1.73 1.218.126.265.184.558.168.85-.017.296-.145.574-.358.779-.045.047-.104.079-.168.09-.064.011-.127-.025-.149-.087-.21.445-.473.863-.782 1.246-.103.142-.24.257-.4.334-.158.057-.328.067-.492.029-.224-.042-.439-.125-.632-.244-.035-.028-.079-.042-.123-.037-.043.011-.067.055-.088.095-.122.238-.337.414-.595.486-.223.03-.45.021-.67-.026-.301-.037-.606-.037-.908 0-.185.016-.363.074-.522.168-.196.147-.312.378-.312.623 0 .095.094.882-.021.9-.186.032-.223-.276-.386-.371-.162-.096-.32.028-.403.167-.14.247-.11.555.075.77.057.048.1.109.128.177.01.07-.002.14-.034.203l-.286.72c-.383-.906-.843-1.777-1.374-2.605-.226-.335-.49-.708-.389-1.095.1-.386.52-.67.432-1.046-.017-.072-.052-.139-.062-.212-.008-.107.014-.213.064-.307z"/>
                        <path fill="#2F3653" d="M25.785 46.906s1.786 4.458 3.219 4.925c1.433.467 10.328 3.152 10.328 3.152l3.781 12.812.978-.6c.37-.227 1.254-.555 1.478-.925.298-.487-.15-1.766-.236-2.32l-.387-2.51c-.52-3.395-1.041-6.79-1.565-10.186 0-.345-.215-.652-.539-.769-1.75-.937-3.547-1.782-5.385-2.532-.9-.369-1.81-.71-2.725-1.035-.18-.063-1.522-.797-1.558-.768-.012.005-.963.72-7.389.756z"/>
                        <path fill="#4C516C" d="M42.052 68.266c-.412-.911-.447-1.937-.567-2.928-.09-.747-.231-1.485-.374-2.223l-1.945-10.157c-.016-.443-.31-.828-.735-.958-3.123-1.525-6.193-3.125-9.29-4.71 0 0-3.348-1.216-5.833.482 0 0-.335 4.066 1.098 4.533 3.166 1.032 6.357 1.975 9.573 2.829.15.03.294.093.418.184.14.14.238.318.281.512 1.172 3.567 2.344 7.136 3.414 10.731.127.425.252.848.376 1.271.096.323.168 1.172.404 1.396.313.316.726 0 1.145-.167l2.283-.921-7.386-17.89-1.074-.553"/>
                        <path fill="#2F3653" d="M47.196 66.545c.378.009.755.046 1.128.112.349.038.68.173.956.388.157.137.261.324.296.53.031.206-.033.416-.175.57-.135.116-.293.201-.464.25-.399.14-.797.279-1.197.416-.855.295-1.724.593-2.628.641-.054.008-.108.002-.16-.016-.038-.02-.073-.047-.103-.08-.542-.53-1.054-1.152-1.185-1.9-.007-.026-.007-.052 0-.078.015-.027.037-.05.064-.067.545-.369 1.145-.651 1.777-.837.573-.165 1.112.059 1.691.07z"/>
                        <path fill="#2F3653" d="M42.869 68.262c.378.01.755.047 1.128.112.349.039.68.173.956.389.157.137.261.324.296.529.031.207-.033.417-.176.57-.134.116-.292.201-.463.25-.399.14-.798.28-1.197.417-.855.294-1.724.592-2.628.64-.056.01-.114.004-.167-.016-.04-.02-.075-.046-.104-.079-.543-.53-1.055-1.153-1.185-1.901-.007-.025-.007-.052 0-.077.014-.028.036-.051.063-.067.546-.37 1.146-.652 1.778-.837.58-.166 1.111.057 1.699.07zM17.88 49.7c1.11 2.563 3.611 4.33 6.291 5.124 2.09.618 4.29.713 6.48.588 0-.15-.087-.24-.27-.248-2.097-.106-2.966-2.863-3.595-4.265-.63-1.403-1.06-3.166-5.156-4.791-3.99-1.58-3.503-4.553-3.702-3.954-.94 2.819-1.23 4.82-.049 7.546z"/>
                        <path fill="#FFF" d="M17.593 49.817c1.111 2.561 3.612 4.33 6.292 5.124 2.09.616 4.895.722 7.084.594 0-.147-.405-.363-.587-.371-2.098-.106-3.014-3.38-3.643-4.783-.63-1.402-1.213-2.226-5.109-4.27-5.83-3.056-1.612-7.214-1.538-7.48-1.398.45-2.176 3.29-2.374 3.89-.942 2.815-1.307 4.568-.125 7.296z"/>
                        <path fill="#FBB451" d="M25.512 54.493c1.773.452 3.65.468 5.375 1.08-.547-.195-1.694.106-2.303.088-.837-.025-1.67-.113-2.494-.263-1.46-.264-3.39-.67-4.594-1.568.784-.667 3.149.442 4.016.663z" opacity=".23"/>
                        <path fill="#FBB451" d="M24.45 70.129c.026.017.056.03.086.038.055.015.112.018.168.008.62-.077 3.669-14.591 3.669-14.591l-.417-.243c-.03-.017-.065-.035-.095-.048-.215-.09-.457-.09-.67.002-.215.092-.382.267-.464.485v.017c-.018.043-.032.089-.04.135L24.29 69.225s-.14.7.16.904z"/>
                        <path fill="url(#6yus8erngj)" d="M24.38 68.933s.026.837.07 1.196c.026.167.051.234.086.038.3-1.756 2.789-12.534 3.326-14.871-.214-.09-.456-.09-.67.002-.214.092-.381.267-.463.485v.017l-2.348 13.133z"/>
                        <path fill="#FFF" d="M27.792 48.513c-.037.22-.152.418-.325.558-.185.153-.408.255-.646.294-.454.072-.917-.053-1.356-.19-1.404-.436-2.77-.988-4.082-1.65-.432-.219-.876-.463-1.135-.871-.287-.459-.29-1.037-.275-1.576.065-2.257.26-4.509.584-6.744.14-.989.13-2.52.722-3.465.295-.504.829-.82 1.413-.837.94-.057 1.719.837 1.891 1.761.173.924-.095 1.872-.335 2.782-.334 1.313-.626 2.643-.837 3.983-.098.595-.175 1.242.11 1.776.136.23.305.439.503.619.796.775 1.673 1.463 2.616 2.05.571.36 1.25.846 1.152 1.51zM41.053 40.691c-.093.476-.392.887-.817 1.122-.42.228-.871.395-1.34.493l-1.92.503c-1.005.264-2.216.473-2.96-.251-.27-.249-.396-.616-.335-.978.02-.09.06-.175.115-.25.142-.155.312-.282.502-.373.555-.328 1.037-.765 1.418-1.284-1.138-.425-2.323-.858-3.276-1.596-.177-.134-.345-.28-.502-.436-.7-.705-1.175-1.602-1.366-2.578-.083-.408-.226-1.09-.077-1.496.203-.554.585-.298 1.127-.142 2.074.596 3.992 1.659 5.706 2.952.988.756 1.923 1.58 2.797 2.464.504.504 1.026 1.139.928 1.85z"/>
                        <path fill="#D9DBE2" d="M36.485 40.308c-.67.464-1.36.91-2.056 1.339-.203.126-.484.248-.656.08-.048-.044-.08-.103-.089-.167.021-.09.06-.175.116-.25.141-.155.312-.282.502-.373.554-.328 1.036-.765 1.418-1.284-1.142-.405-2.327-.838-3.28-1.576v-.141c0-.167-.035-1.386-.13-1.445l4.278 2.648c.167.079.3.212.379.379.108.31-.203.599-.482.79z" opacity=".38"/>
                        <path fill="#EB9D80" d="M32.338 42.799c-.122.313-.187.646-.192.982-.049.458.024.92.212 1.34.211.406.648.722 1.104.669.315-.047.593-.23.76-.502.163-.27.25-.58.252-.896.21-.053.325-.278.377-.489.028-.214.095-.422.197-.612.128-.18.347-.28.454-.472.09-.185.083-.402-.018-.581-.275-.53-1.134-.99-1.696-.743-.563.246-1.189.706-1.45 1.304zM26.942 49.016c.353.525 1.1.595 1.725.502.64-.093 1.257-.297 1.825-.603.15-.063.274-.177.348-.323.032-.102.032-.212 0-.315-.104-.345-.346-.632-.67-.793-.32-.157-.66-.27-1.012-.335-.568-.129-1.172-.258-1.72-.067-.547.191-.649.168-.709.717-.032.398-.017.88.213 1.217z"/>
                        <path fill="#FFF" d="M25.226 32.66l1.136.589c.401.186.777.423 1.119.703-.208.46-.342.95-.4 1.451-.3-.372-.647-.703-1.033-.984-.36-.238-.779-.385-1.115-.658-.397-.321.09-.773.293-1.101zM28.791 33.778l.53.706c.037.04.062.09.075.143-.409-.192-.84-.333-1.283-.419-.049-.002-.095-.025-.125-.064-.016-.035-.019-.074-.009-.112.034-.265-.011-.534-.128-.775-.049-.075-.08-.16-.092-.247-.022-.392.395.02.492.115.196.204.376.422.54.653z"/>
                        <path fill="#FBB451" d="M62.767 34.208v1.507c0 .638-.253 1.25-.704 1.702-.451.451-1.063.705-1.702.705H39.976c-1.328-.005-2.401-1.084-2.398-2.412v-1.507l25.189.005z" opacity=".41"/>
                        <path fill="#D9DBE2" d="M27.467 49.07c-.185.154-.408.256-.646.295-.454.072-.917-.053-1.356-.19-1.404-.436-2.77-.988-4.082-1.65-.432-.219-.876-.463-1.135-.871-.287-.459-.29-1.037-.275-1.576.065-2.257.26-4.509.584-6.744.14-.989.13-2.52.722-3.465.174.05.345.112.512.184.227.077.422.227.554.427.144.265.084.593.015.89-.624 2.845-1.054 5.728-1.287 8.63-.064.277.052.565.29.721.57.515 1.178.986 1.819 1.41 1.004.67 2.223 1.436 3.418 1.657.34.065.618.069.867.283z" opacity=".43"/>
                        <rect width="26.848" height="9.337" x="57.522" y="10.072" fill="#FFF" rx="4.669"/>
                        <path fill="#FFF" d="M73.882 22.492L71.461 19.056 73.882 19.056z"/>
                    </g>
                    <g fill="#FA9E1F">
                        <path d="M15.616 23.987v-5.851h2.171c.277 0 .487-.08.63-.24.144-.161.216-.352.216-.573v-2.37h-3.017V0h-3.88L.382 15.168l.415 2.072c.055.255.188.467.398.639.21.17.453.257.729.257h10.112v5.851h3.58zm-3.58-9.034H4.74L12.184 4.69c-.055.442-.094.868-.116 1.277-.022.409-.033.79-.033 1.144v7.84z" transform="translate(-648 -736) translate(0 544) translate(648 192) translate(3.652 13.391)"/>
                    </g>
                </g>
            </g>
        </g>
    </g>
</svg>
