<svg xmlns="http://www.w3.org/2000/svg" width="112" height="112" viewBox="0 0 112 112">
    <defs>
        <linearGradient id="63ofxcn12a" x1="44.831%" x2="66.784%" y1="11.782%" y2="173.789%">
            <stop offset="0%" stop-color="#010101" stop-opacity="0"/>
            <stop offset="95%" stop-color="#010101"/>
        </linearGradient>
        <linearGradient id="4ic1c1xg9b" x1="66.585%" x2="-110.136%" y1="49.056%" y2="177.755%">
            <stop offset="0%" stop-color="#010101" stop-opacity="0"/>
            <stop offset="95%" stop-color="#010101"/>
        </linearGradient>
        <linearGradient id="xo7y45wgoc" x1="41.76%" x2="119.844%" y1="46.172%" y2="66.048%">
            <stop offset="0%" stop-color="#010101" stop-opacity="0"/>
            <stop offset="95%" stop-color="#010101"/>
        </linearGradient>
        <linearGradient id="79v7z5cyld" x1="58.447%" x2="2.129%" y1="47.958%" y2="55.451%">
            <stop offset="0%" stop-color="#010101" stop-opacity="0"/>
            <stop offset="95%" stop-color="#010101"/>
        </linearGradient>
        <linearGradient id="0vsng46pce" x1="50.825%" x2="31.347%" y1="26.267%" y2="271.874%">
            <stop offset="12%" stop-color="#010101" stop-opacity="0"/>
            <stop offset="95%" stop-color="#010101"/>
        </linearGradient>
        <linearGradient id="m2gm0oj69f" x1="50.801%" x2="46.408%" y1="-9.519%" y2="316.922%">
            <stop offset="0%" stop-color="#010101" stop-opacity="0"/>
            <stop offset="95%" stop-color="#010101"/>
        </linearGradient>
        <linearGradient id="85jg7c2iog" x1="50.889%" x2="46.013%" y1="-23.237%" y2="378.456%">
            <stop offset="0%" stop-color="#010101" stop-opacity="0"/>
            <stop offset="95%" stop-color="#010101"/>
        </linearGradient>
        <linearGradient id="0dx6a3h2ch" x1=".019%" x2="100.015%" y1="50.044%" y2="50.044%">
            <stop offset="0%" stop-color="#E5C6D6"/>
            <stop offset="42%" stop-color="#EAD4D0"/>
            <stop offset="100%" stop-color="#F0E9CB"/>
        </linearGradient>
        <linearGradient id="p3jv962hxi" x1=".08%" x2="100.014%" y1="50.018%" y2="50.018%">
            <stop offset="0%" stop-color="#E5C6D6"/>
            <stop offset="42%" stop-color="#EAD4D0"/>
            <stop offset="100%" stop-color="#F0E9CB"/>
        </linearGradient>
        <linearGradient id="zgccxds25j" x1="46.984%" x2="25.348%" y1="44.531%" y2="51.063%">
            <stop offset="0%" stop-color="#010101" stop-opacity="0"/>
            <stop offset="95%" stop-color="#010101"/>
        </linearGradient>
        <linearGradient id="subm8y3k7k" x1="211.932%" x2="517.436%" y1="193.86%" y2="199.66%">
            <stop offset="0%" stop-color="#010101" stop-opacity="0"/>
            <stop offset="95%" stop-color="#010101"/>
        </linearGradient>
        <linearGradient id="28m2hemjvl" x1="27.688%" x2="-9.619%" y1="43.81%" y2="69.286%">
            <stop offset="0%" stop-color="#010101" stop-opacity="0"/>
            <stop offset="95%" stop-color="#010101"/>
        </linearGradient>
        <linearGradient id="1odrf3s1em" x1="-8.931%" x2="79.979%" y1="32.528%" y2="163.812%">
            <stop offset="0%" stop-color="#010101" stop-opacity="0"/>
            <stop offset="95%" stop-color="#010101"/>
        </linearGradient>
        <linearGradient id="cn33vw7utn" x1="33.55%" x2="95.164%" y1="49.246%" y2="53.893%">
            <stop offset="0%" stop-color="#010101" stop-opacity="0"/>
            <stop offset="95%" stop-color="#010101"/>
        </linearGradient>
        <linearGradient id="fojinlef4o" x1="0%" x2="100%" y1="50%" y2="50%">
            <stop offset="0%" stop-color="#010101" stop-opacity="0"/>
            <stop offset="95%" stop-color="#010101"/>
        </linearGradient>
        <linearGradient id="8xpzvm1lpp" x1=".432%" x2="99.751%" y1="49.993%" y2="49.993%">
            <stop offset="0%" stop-color="#E5C6D6"/>
            <stop offset="42%" stop-color="#EAD4D0"/>
            <stop offset="100%" stop-color="#F0E9CB"/>
        </linearGradient>
        <linearGradient id="o77kvbpgdq" x1="61.561%" x2="42.443%" y1="40.812%" y2="64.698%">
            <stop offset="0%" stop-color="#FFF" stop-opacity="0"/>
            <stop offset="95%" stop-color="#FFF"/>
        </linearGradient>
        <linearGradient id="lou3z7upnr" x1="40.603%" x2="59.807%" y1="39.53%" y2="66.808%">
            <stop offset="0%" stop-color="#FFF" stop-opacity="0"/>
            <stop offset="95%" stop-color="#FFF"/>
        </linearGradient>
    </defs>
    <g fill="none" fill-rule="evenodd">
        <g>
            <g>
                <g>
                    <g transform="translate(-840 -736) translate(0 544) translate(840 192) translate(4.87 12.174)">
                        <path fill="#FBB451" fill-rule="nonzero" d="M52.298.059c-8.905.61-17.47 5.135-23.002 12.15-5 6.343-7.458 14.36-12.17 20.91-4.735 6.59-11.676 11.618-15.12 18.976-5.174 11.045.065 25.798 11.042 31.09 6.094 2.94 13.103 3.101 19.867 3.207l41.253.638c4.865.075 9.843.133 14.456-1.425 9.104-3.077 15.48-13.427 13.066-22.741-1.906-7.358-8.448-13.064-9.367-20.6-.52-4.258.856-8.517.92-12.807C93.5 11.94 67.446-.979 52.298.06z" opacity=".24"/>
                        <path fill="#FBB451" fill-rule="nonzero" d="M59.623 56.496H47.296L41.608 42.22l22.848-.588-4.833 14.863zm-11.872-.665h11.395l4.397-13.514-20.953.539 5.16 12.975z"/>
                        <path fill="url(#63ofxcn12a)" fill-rule="nonzero" d="M62.63 47.267L61.764 47.728 60.953 50.275 61.718 49.758z"/>
                        <path fill="#FBB451" fill-rule="nonzero" d="M56.005 49.72c-.56-.15-1.157-.267-1.717-.12-.426.132-.82.352-1.156.646-1.579 1.253-2.754 2.943-3.378 4.86-.081.255-.142.56.037.765.135.15.36.194.566.222 1.65.238 3.305.438 4.966.6.2.033.403.026.6-.017.195-.07.37-.185.51-.338.796-.785 1.139-1.886 1.454-2.943.158-.44.245-.902.26-1.37-.023-1.3-.938-1.974-2.142-2.306z"/>
                        <path fill="url(#4ic1c1xg9b)" fill-rule="nonzero" d="M53.512 52.605l.45 1.075c.086.258.225.496.409.697.268.258.653.342.994.496.44.197.813.516 1.078.918-.65.032-1.303.005-1.95-.08-.2-.02-.397-.07-.583-.15-.361-.169-.259-.612-.607-.809-.249-.14-.89-.045-1.15-.15.144-.76.766-1.518 1.359-1.997z"/>
                        <path fill="#FBB451" fill-rule="nonzero" d="M36.118 7.434c-7.046 5.556-8.702 15.574-3.819 23.107.8 1.236 1.757 2.368 2.497 3.64 1.42 2.445 2.099 5.461 4.305 7.217 1.72 1.366 4.03 1.672 6.22 1.865.358.057.724.037 1.074-.057.772-.266 1.119-1.166 1.228-1.975.3-2.231-.429-4.452-1.012-6.626-1.93-7.224-2.279-14.78-1.02-22.151.383-2.227 1.573-6.187-1.293-7.208-2.735-.97-6.066.521-8.18 2.188z"/>
                        <path fill="url(#xo7y45wgoc)" fill-rule="nonzero" d="M37.74 7.185c-7.046 5.556-8.702 15.574-3.818 23.107.8 1.234 1.757 2.367 2.496 3.64 1.42 2.443 2.1 5.46 4.305 7.216 1.721 1.367 4.03 1.673 6.22 1.865.358.056.724.036 1.075-.058.772-.266 1.117-1.164 1.228-1.975.3-2.23-.43-4.452-1.012-6.626-1.932-7.226-2.28-14.785-1.02-22.158.382-2.226 1.573-6.185-1.294-7.2-2.735-.969-6.065.52-8.18 2.189z"/>
                        <path fill="#FBB451" fill-rule="nonzero" d="M69.383 7.153c7.046 5.556 8.702 15.575 3.819 23.108-.8 1.235-1.757 2.366-2.497 3.64-1.42 2.442-2.099 5.46-4.304 7.216-1.722 1.366-4.032 1.673-6.22 1.865-.359.056-.726.036-1.077-.057-.77-.268-1.117-1.165-1.226-1.975-.3-2.231.429-4.453 1.012-6.628 1.932-7.226 2.279-14.785 1.018-22.158-.382-2.225-1.571-6.185 1.296-7.2 2.733-.968 6.066.523 8.179 2.19z"/>
                        <path fill="url(#79v7z5cyld)" fill-rule="nonzero" d="M68.54 7.716c7.047 5.556 8.703 15.575 3.82 23.108-.801 1.234-1.758 2.366-2.497 3.64-1.42 2.443-2.1 5.46-4.305 7.216-1.721 1.366-4.03 1.673-6.22 1.865-.358.056-.724.036-1.075-.059-.772-.265-1.117-1.163-1.228-1.974-.3-2.23.429-4.452 1.012-6.627 1.932-7.226 2.28-14.785 1.02-22.158-.382-2.227-1.573-6.186 1.294-7.207 2.735-.961 6.065.528 8.18 2.196z"/>
                        <path fill="#FBB451" fill-rule="nonzero" d="M35.919 14.077c.645-2.69 1.832-5.308 3.786-7.263 2.837-2.84 6.954-3.985 10.938-4.466 3.85-.464 7.92-.376 11.385 1.368 4.398 2.214 7.24 6.95 7.788 11.848.55 4.898-1.001 9.881-3.661 14.027-1.8 2.808-4.15 5.389-4.97 8.625-.47 1.856-.469 3.976-1.764 5.383-.742.808-1.8 1.237-2.84 1.583-3.501 1.163-8.162 1.636-11.14-1.079-1.898-1.726-2.061-4.396-2.983-6.659-1.531-3.754-4.394-6.734-5.788-10.574-1.487-4.1-1.748-8.546-.751-12.793z"/>
                        <path fill="url(#0vsng46pce)" fill-rule="nonzero" d="M37.988 14.077c.552-2.69 1.571-5.308 3.248-7.263 2.436-2.84 5.97-3.985 9.39-4.466 3.307-.464 6.799-.376 9.774 1.368 3.774 2.214 6.212 6.95 6.684 11.848.473 4.898-.86 9.881-3.148 14.027-1.543 2.808-3.563 5.386-4.262 8.625-.403 1.856-.403 3.976-1.514 5.383-.636.808-1.546 1.237-2.435 1.589-3 1.163-7.004 1.636-9.564-1.079-1.627-1.726-1.767-4.396-2.56-6.659-1.314-3.757-3.77-6.74-4.97-10.581-1.28-4.143-1.5-8.541-.643-12.792z"/>
                        <rect width="17.035" height="14.81" x="44.651" y="55.945" fill="#FBB451" fill-rule="nonzero" rx="2.137"/>
                        <path fill="url(#m2gm0oj69f)" fill-rule="nonzero" d="M61.683 58.401v10.534c.001.48-.189.942-.528 1.283-.34.34-.8.533-1.28.533h-13.41c-.482.001-.944-.19-1.285-.53-.34-.342-.53-.804-.53-1.286V58.4c.007-.998.817-1.803 1.814-1.802h13.411c.995.001 1.803.806 1.808 1.802z"/>
                        <path fill="url(#85jg7c2iog)" fill-rule="nonzero" d="M61.683 58.401v10.534c.001.48-.189.942-.528 1.283-.34.34-.8.533-1.28.533H48.147c-.48 0-.941-.192-1.28-.533-.34-.34-.53-.802-.529-1.283V58.4c.006-.996.814-1.8 1.809-1.802h11.728c.995.001 1.803.806 1.808 1.802z"/>
                        <path fill="#FFF" fill-rule="nonzero" d="M57.836 53.794c.641.687 1.185 1.458 1.616 2.293.046.068.065.152.053.233-.033.078-.093.14-.17.174-1.1.675-2.206 1.333-3.32 1.973-.152.11-.336.169-.524.168-.113-.02-.222-.062-.318-.124-.75-.424-1.433-.96-2.023-1.589-.076-.062-.122-.155-.124-.254.025-.088.084-.163.165-.208.722-.565 1.473-1.092 2.249-1.58.642-.383 1.615-1.086 2.396-1.086z"/>
                        <path fill="#606161" fill-rule="nonzero" d="M56.572 46.058c-.834.293-1.528.97-2.4 1.08-.158.021-.343.033-.436.164-.093.13-.033.342.074.479.124.121.234.256.328.402.053.107.068.23.128.333.096.134.227.238.38.3.735.38 1.518.768 2.344.717.747-.051 1.42-.468 1.8-1.114.29-.514.45-1.56.068-2.084-.448-.613-1.677-.49-2.286-.277z"/>
                        <path fill="url(#0dx6a3h2ch)" fill-rule="nonzero" d="M58.364 49.829c-.073.248-.222.466-.428.623-.166.093-.357.13-.545.108-.187-.024-.372-.064-.552-.119-.083-.03-.172-.033-.257-.009-.067.033-.122.085-.159.15-.07.11-.127.23-.166.355-.018.09-.055.174-.11.248-.11.09-.252.133-.394.117-.076.006-.152-.006-.222-.036-.117-.092-.178-.238-.162-.386-.009-.213 0-.428.012-.641-.004-.385.06-.768.19-1.13.088-.19.194-.369.319-.535.338-.48.727-.964 1.274-1.178.333-.109.68-.164 1.03-.163.128-.014.257-.008.383.02.505.137.27.775.199 1.142-.094.49-.232.97-.412 1.434z"/>
                        <path fill="#606161" fill-rule="nonzero" d="M56.324 48.679c0 .12-.019.276-.135.307-.04-.062-.068-.13-.085-.202-.027-.068-.08-.138-.15-.141-.04.002-.078.016-.11.039-.096.05-.168.135-.199.238-.03.15.083.3.042.45-.015.055-.066.109-.12.092-.03-.014-.055-.04-.07-.07-.108-.184-.201-.376-.28-.574-.033-.07-.055-.146-.065-.223-.004-.09.01-.18.043-.263.106-.267.283-.5.512-.673.227-.173.47-.324.727-.45.165-.09.532-.3.721-.15.19.15-.114.331-.214.412-.367.297-.591.736-.617 1.208z"/>
                        <path fill="#FBB451" fill-rule="nonzero" d="M58.653 51.743l1.5 2.102c.18-.067.305-.232.322-.424.013-.189-.002-.378-.045-.562-.045-.28-.063-.565-.054-.848-.013-.208.047-.413.168-.582.244-.285.739-.2.994.077.255.276.33.668.382 1.04.107.69.149 1.387.125 2.083-.017.343-.066.71-.3.957-.184.167-.414.276-.66.31-1.304.263-2.69-.423-3.458-1.511-.643-.94-.936-2.074-.829-3.208.162-1.513 1.432-.027 1.855.566z"/>
                        <path d="M50.787 54.407c-.084.282-.15.613.026.851.175.24.496.277.784.3l.814.064c.487.037 1.05.045 1.372-.325.113-.15.2-.32.253-.501.058-.114.072-.244.04-.368-.044-.108-.15-.173-.236-.252-.336-.322-.268-.89-.036-1.292s.592-.719.82-1.123c.157-.275.247-.584.264-.9.01-.085-.002-.17-.033-.248-.053-.093-.136-.166-.234-.208-2.066-1.048-3.443 2.687-3.834 4.002z"/>
                        <path fill="url(#p3jv962hxi)" fill-rule="nonzero" d="M54.916 54.904c.104 0 .206.02.3.06.207.104.276.36.31.59.026.128.022.26-.011.386-.056.14-.163.255-.3.32-.3.16-.657.13-.991.092-.215-.024-.474-.09-.527-.3-.027-.113 0-.27-.105-.318-.028-.011-.06-.016-.091-.015-.125.01-.251.006-.376-.009-.127-.016-.239-.093-.3-.205-.04-.125-.031-.26.025-.379.13-.357.345-.41.675-.335.447.101.939.082 1.391.113z"/>
                        <path fill="#FBB451" fill-rule="nonzero" d="M59.11 49.542c.078-.144.213-.248.372-.287.735-.175 3.035-.812 3.169-1.91.041-.184.216-.307.403-.284.36 0 .933 3.394.837 3.468-.096.073-.425-.085-.6-.242-.349-.32-.842-.429-1.293-.285-.29.09-.82.213-1.315.32-.355.076-.692.15-.91.189-.184.037-.374-.03-.495-.173-.175-.194-.254-.456-.216-.715 0 0 .023-.031.048-.081z"/>
                        <ellipse cx="63.528" cy="48.796" fill="#FBB451" fill-rule="nonzero" rx="1" ry="1.778" transform="rotate(-14.48 63.528 48.796)"/>
                        <ellipse cx="63.528" cy="48.796" fill="url(#zgccxds25j)" fill-rule="nonzero" rx="1" ry="1.778" transform="rotate(-14.48 63.528 48.796)"/>
                        <circle cx="63.572" cy="48.908" r="1" fill="url(#subm8y3k7k)" fill-rule="nonzero" transform="rotate(-14.452 63.572 48.908)"/>
                        <path fill="url(#28m2hemjvl)" fill-rule="nonzero" d="M63.327 48.3l-.46.06s.176 1.107.371 1.202l.314-.232-.225-1.03z"/>
                        <path fill="url(#1odrf3s1em)" fill-rule="nonzero" d="M60.15 49.748s.124.561.54.576l-1.028.233s-.367-.02-.44-.17c-.071-.148-.437-.66.079-1.06l.827-.253c-.053.222-.046.455.021.674z"/>
                        <path fill="url(#cn33vw7utn)" fill-rule="nonzero" d="M62.588 47.74c-.044.877.183 1.745.649 2.488-.295-.21-.656-.308-1.017-.275 0 0-.3-1.11-.17-1.418.151-.283.331-.55.538-.795z"/>
                        <path fill="#FBB451" fill-rule="nonzero" d="M60.142 50.431L60.434 52.102 60.422 52.781 61.312 52.586 61.204 51.914 60.829 50.258z"/>
                        <path fill="url(#fojinlef4o)" fill-rule="nonzero" d="M60.142 50.431L60.434 52.102 60.422 52.781 61.312 52.586 61.204 51.914 60.829 50.258z"/>
                        <path fill="url(#8xpzvm1lpp)" fill-rule="nonzero" d="M60.497 52.164c-.237-.344-.276-.783-.307-1.201-.036-.182-.003-.371.094-.529.093-.094.21-.159.338-.188.179-.073.376-.09.565-.046.195.077.345.238.408.438.06.198.09.404.088.611l.027.647.036.844c.016.11-.002.222-.052.322-.381.59-1.038-.667-1.197-.898z"/>
                        <path fill="#FFF" fill-rule="nonzero" d="M74.72 55.398c.529 1.42.966 2.87 1.31 4.346-.513.064-1.032.012-1.548.04-1.676.093-3.172 1.032-4.583 1.942.848-.548-2.008-3.274-.539-4.278.648-.45 1.885-.542 2.64-.825.932-.35 1.84-.759 2.72-1.225zM29.552 63.056c-.224-.104-.463-.173-.708-.207-.305-.007-.609.037-.9.13-1.908.476-3.857.669-5.806.86l-6.084.601c2.527 1.894 5.01 3.844 7.451 5.849 2.856-1.89 6.16-2.992 9.578-3.192.477-.027.967-.04 1.404-.233 1.789-.787-.315-1.63-1.125-2.051-1.241-.647-2.511-1.232-3.81-1.757zM76.522 72.624c1.763-.807 3.675-1.225 5.515-1.844-1.417.682-2.85 1.378-4.01 2.446-1.634 1.512-2.63 3.703-4.524 4.874-1.456.884-3.238 1.048-4.83.443.049.018 1.577-2.252 1.734-2.457.777-.99.807-.85 1.816-1.067.933-.2.9-.07 1.77-.769.77-.648 1.62-1.194 2.529-1.626zM30.603 52.958l2.417 2.5c.083.1.185.18.3.237.097.034.198.051.3.05 1.537.089 3.072.24 4.597.45-.42-.87-2.08-1.74-2.849-2.294-.6-.435-1.283-.54-2.037-.671-.467-.084-2.458.007-2.728-.272z"/>
                        <path fill="url(#o77kvbpgdq)" fill-rule="nonzero" d="M67.91 41.34c-1.499 2.052-1.26 5.197.545 6.992 2.399 2.393 6.321 2 9.665 1.438.28 2.783 3.036 4.789 5.803 5.17 2.766.381 5.537-.477 8.199-1.324.216 1.157 1.14 2.05 2.301 2.225 1.162.176 2.308-.404 2.855-1.446-1.73-2.16-3.474-4.34-4.702-6.818-1.228-2.48-1.912-5.32-1.391-8.038.187-.982.398-2.272-.485-2.74-.279-.126-.584-.182-.889-.166-2.31-.022-4.577.64-6.512 1.906-.579.38-1.168.829-1.858.868-.554.031-1.082-.208-1.62-.34-1.983-.488-4.001.517-5.998.322-2.267-.22-4.427-.075-5.912 1.95z"/>
                        <path fill="url(#lou3z7upnr)" fill-rule="nonzero" d="M24.836 48.04c1.088 1.583.91 4.008-.39 5.393-1.737 1.845-4.562 1.542-6.975 1.108-.2 2.145-2.189 3.692-4.185 3.986-1.995.295-3.994-.368-5.915-1.02-.15.861-.848 1.583-1.66 1.714-.853.105-1.68-.345-2.055-1.12 1.249-1.664 2.507-3.346 3.393-5.256.886-1.91 1.378-4.1 1.003-6.196-.135-.751-.286-1.751.35-2.113.2-.096.42-.14.641-.128 1.681-.011 3.324.504 4.698 1.475.418.293.842.638 1.34.668.4.024.78-.16 1.17-.261 1.429-.377 2.885.398 4.33.247 1.632-.17 3.188-.058 4.255 1.503z"/>
                        <path fill="#FFF" fill-rule="nonzero" d="M91.31 64.272c-1.608-.2-3.227-.291-4.847-.273.166.93.354 1.855.565 2.775 1.458-.406 3.02-.057 4.439.468 1.418.526 2.78 1.229 4.255 1.563.114.043.24.033.346-.028.164-.132.042-.394-.085-.562-1.396-1.827-2.234-3.657-4.674-3.943z"/>
                        <path fill="#FBB451" fill-rule="nonzero" d="M44.746 58.975H61.499V61.412H44.746zM44.746 62.35H61.499V64.787H44.746zM44.746 65.724H61.499V68.161H44.746z" opacity=".24"/>
                    </g>
                    <g fill="#FA9E1F" fill-rule="nonzero">
                        <path d="M6.933 23.946c1.234 0 2.375-.196 3.423-.59 1.048-.394 1.955-.95 2.722-1.668.766-.718 1.364-1.583 1.795-2.593.431-1.011.646-2.128.646-3.352 0-.99-.16-1.913-.478-2.77-.32-.856-.793-1.603-1.42-2.242-.629-.638-1.403-1.138-2.323-1.5-.92-.362-1.987-.543-3.2-.543-.862 0-1.814.107-2.857.32l.83-4.82h6.352c.83 0 1.423-.176 1.78-.527.356-.351.534-.809.534-1.373V.612H3.342L1.426 11.817l2.458.702c1.128-.404 2.25-.607 3.368-.607 1.415 0 2.487.354 3.216 1.062.729.707 1.093 1.689 1.093 2.944 0 .681-.093 1.312-.279 1.892-.186.58-.463 1.08-.83 1.5-.367.42-.827.747-1.38.982-.554.234-1.192.35-1.916.35-.68 0-1.26-.084-1.74-.255-.478-.17-.899-.356-1.26-.558-.362-.202-.679-.389-.95-.559-.271-.17-.54-.255-.806-.255-.426 0-.766.18-1.021.542L.166 21.233c.383.362.816.705 1.3 1.03.484.324 1.011.611 1.58.862.57.25 1.179.45 1.828.598.649.149 1.335.223 2.059.223z" transform="translate(-840 -736) translate(0 544) translate(840 192) translate(9.74 12.174)"/>
                    </g>
                </g>
            </g>
        </g>
    </g>
</svg>
