<svg xmlns="http://www.w3.org/2000/svg" width="325" height="250" viewBox="0 0 325 250">
    <defs>
        <linearGradient id="jq2u2em81a" x1="50.524%" x2="49.182%" y1="-8.167%" y2="142.55%">
            <stop offset="1%"/>
            <stop offset="8%" stop-opacity=".69"/>
            <stop offset="21%" stop-opacity=".32"/>
            <stop offset="100%" stop-opacity="0"/>
        </linearGradient>
        <linearGradient id="zvsp02qsib" x1="0%" x2="100.022%" y1="50.016%" y2="50.016%">
            <stop offset="1%"/>
            <stop offset="8%" stop-opacity=".69"/>
            <stop offset="21%" stop-opacity=".32"/>
            <stop offset="100%" stop-opacity="0"/>
        </linearGradient>
        <linearGradient id="l5tpk6jp1c" x1="49.932%" x2="50.157%" y1="-12.845%" y2="177.822%">
            <stop offset="1%"/>
            <stop offset="8%" stop-opacity=".69"/>
            <stop offset="21%" stop-opacity=".32"/>
            <stop offset="100%" stop-opacity="0"/>
        </linearGradient>
        <linearGradient id="87wvt5s9hd" x1="52.335%" x2="43.301%" y1="44.054%" y2="67.578%">
            <stop offset="1%"/>
            <stop offset="8%" stop-opacity=".69"/>
            <stop offset="21%" stop-opacity=".32"/>
            <stop offset="100%" stop-opacity="0"/>
        </linearGradient>
        <linearGradient id="0rfvn6alre" x1="115.213%" x2="-85.513%" y1="54.058%" y2="41.875%">
            <stop offset="1%"/>
            <stop offset="8%" stop-opacity=".69"/>
            <stop offset="21%" stop-opacity=".32"/>
            <stop offset="100%" stop-opacity="0"/>
        </linearGradient>
        <linearGradient id="d4jm0bj6xf" x1="59.14%" x2="37.547%" y1="26.148%" y2="82.486%">
            <stop offset="1%"/>
            <stop offset="8%" stop-opacity=".69"/>
            <stop offset="21%" stop-opacity=".32"/>
            <stop offset="100%" stop-opacity="0"/>
        </linearGradient>
        <linearGradient id="qxig57u7cg" x1="99.87%" x2="-.022%" y1="50.016%" y2="50.016%">
            <stop offset="1%"/>
            <stop offset="8%" stop-opacity=".69"/>
            <stop offset="21%" stop-opacity=".32"/>
            <stop offset="100%" stop-opacity="0"/>
        </linearGradient>
        <linearGradient id="73ckewk7wh" x1="50.073%" x2="49.847%" y1="-12.845%" y2="177.822%">
            <stop offset="1%"/>
            <stop offset="8%" stop-opacity=".69"/>
            <stop offset="21%" stop-opacity=".32"/>
            <stop offset="100%" stop-opacity="0"/>
        </linearGradient>
        <linearGradient id="2dtt6ha8mi" x1="47.666%" x2="56.681%" y1="44.054%" y2="67.578%">
            <stop offset="1%"/>
            <stop offset="8%" stop-opacity=".69"/>
            <stop offset="21%" stop-opacity=".32"/>
            <stop offset="100%" stop-opacity="0"/>
        </linearGradient>
        <linearGradient id="2t2ks02ylj" x1="40.857%" x2="62.453%" y1="26.148%" y2="82.486%">
            <stop offset="1%"/>
            <stop offset="8%" stop-opacity=".69"/>
            <stop offset="21%" stop-opacity=".32"/>
            <stop offset="100%" stop-opacity="0"/>
        </linearGradient>
    </defs>
    <g fill="none" fill-rule="evenodd">
        <g fill-rule="nonzero">
            <g>
                <g transform="translate(-576 -4605) translate(576 4605) translate(1.766)">
                    <path fill="#FBB451" d="M38.33 33.987C21.4 53.693 14.105 79.79 9.184 105.302c-5.07 26.391-8.098 53.134-9.059 79.99-.568 15.763.355 33.448 11.813 44.28 4.285 4.056 9.671 6.723 15.048 9.152 9.584 4.342 19.551 8.174 30.009 9.35 17.331 1.943 34.55-3.493 51.138-8.889 29.222-9.506 59.604-19.21 90.094-15.364 14.14 1.783 27.76 6.446 41.812 8.83 14.052 2.386 29.27 2.274 41.608-4.856 8.583-4.97 15.058-12.94 20.167-21.44 11.469-19.076 16.885-41.288 18.619-63.491.855-10.963.84-22.072-1.283-32.86-2.428-12.328-7.538-23.942-12.697-35.395-6.314-14.053-12.857-28.144-21.887-40.632-9.03-12.488-20.814-23.412-35.148-29.052C222.136-5.795 192.302 3.687 164.732 8c-14.087 2.19-28.659 3.604-42.716.432-6.766-1.525-12.196-4.663-19.138-4.91-7.32-.258-15.164 1.457-22.15 3.473C64.424 11.7 49.409 21.08 38.33 33.987z" opacity=".18"/>
                    <path fill="#FBB451" d="M132.484 103.146H155.65300000000002V122.07H132.484z"/>
                    <path fill="url(#jq2u2em81a)" d="M132.484 103.146H155.65300000000002V122.07H132.484z"/>
                    <rect width="73.117" height="46.286" x="109.018" y="64.321" fill="#FFF" rx="4.117"/>
                    <path fill="#FFF" d="M89.866 121.856H212.93599999999998V125.776H89.866z"/>
                    <path fill="#D9DBE2" d="M89.866 124.139H212.93599999999998V125.776H89.866z"/>
                    <ellipse cx="159.33" cy="201.516" fill="#FBB451" opacity=".18" rx="131.381" ry="15.135"/>
                    <path fill="#FBB451" d="M257.225 154.648s13.513 43.59 12.046 44.658c-1.467 1.069-2.394-1.836-2.394-1.836l-13.63-40.51 3.978-2.312zM228.178 159.68l-.126.316-15.398 39.505c-.233.61-.584 1.168-1.034 1.641-.177.213-.434.343-.71.36-.276.016-.547-.082-.748-.272-1.389-1.137 13.076-41.681 13.076-41.681l4.94.131zM239.705 156.78s-.486 45.63-2.2 46.198c-1.715.569-1.715-2.482-1.715-2.482l-.583-42.744 4.498-.972z"/>
                    <path fill="url(#zvsp02qsib)" d="M254.811 155.177s14.708 42.26 13.236 43.308c-1.471 1.05-1.17-1.02-1.17-1.02l-13.63-40.51 1.564-1.778z"/>
                    <path fill="url(#l5tpk6jp1c)" d="M228.047 159.996L212.65 199.5c-.233.61-.584 1.168-1.034 1.641.053-4.527 13.158-41.219 13.158-41.219l3.274.073z"/>
                    <path fill="url(#87wvt5s9hd)" d="M239.705 156.78s-.486 45.63-2.2 46.198c-1.715.569-.656-3.439-.656-3.439l.607-42.258 2.249-.5z"/>
                    <path fill="#2F3653" d="M269.587 144.22c-3.225 7.436-10.482 12.565-18.259 14.868-6.062 1.792-12.449 2.069-18.802 1.704-1.778-.093-3.56-.228-5.343-.403-3.11-.315-6.262-.719-9.171-1.855-2.91-1.137-5.62-3.1-7.097-5.873-.9-1.825-1.397-3.823-1.457-5.858-.306-5.216 1.346-10.764 5.343-14.086 3.138-2.623 7.233-3.643 10.487-6.077 3.643-2.734 7.383-5.177 11.24-7.635s7.772-4.94 12.085-6.504c4.313-1.564 9.122-2.152 13.484-.768 1.51.486 3.837 1.657 6.115 7.233 3.308 7.97 4.804 17.34 1.375 25.253z"/>
                    <path fill="#FC682D" d="M245.704 91.4c-1.55 2.123-6.271 4.173-6.271 4.173-.544-2.098.617-2.876.617-2.876 1.21.107 2.797-2.841 2.278-3.769-.641-1.156-1.53-.743-2.123-.248-1.236-.962-2.012-2.397-2.142-3.958-.078-.909 1.491-3.473-1.516-4.586-3.006-1.112-7.242 0-7.242 0s-1.093-2.802 2.429-4.143c7.903-3.021 17.297 2.132 16.772 10.987-.14 2.4-.3 5.125 1.36 6.859.909.942 2.19 1.399 3.4 1.875 1.579.612 3.182 1.355 4.29 2.642 1.107 1.287 1.578 3.26.699 4.712-.418.694-1.142 1.36-.972 2.152.122.355.33.674.608.927 1.815 1.947 2.981 4.41 3.337 7.048.338 2.658-.5 5.33-2.293 7.32-2.429 2.55-6.315 3.216-9.797 2.691-2.818-.427-5.606-1.593-7.52-3.706-2.914-3.22-3.278-7.898-4.09-12.143-.048-.524-.258-1.02-.602-1.418-.85-.797-2.215-.151-3.376-.18-2.006-.044-3.351-2.244-3.4-4.246-.048-2 .763-3.885 1.171-5.872.408-1.987.282-4.28-1.239-5.586-.568-.486-1.277-.792-1.89-1.229-2.71-1.943-2.55-6.426-.237-8.835 2.312-2.41 6.023-3.002 9.311-2.429 2.643.486 8.608 1.943 9.832 4.372 1.224 2.428.165 7.339-1.394 9.467z"/>
                    <path fill="#FDBAAC" d="M225.59 104.054l-12.741 13.115-16.914-8.918c-2.089-1.287-4.508-1.933-6.96-1.86-.253 0-.593.145-.535.388.059.243.34.262.384.486.044.223-.228.359-.452.408l-4.04.898c-.594.136-1.312.413-1.346 1.02.036.41.26.78.607 1 2.666 2.22 6.407 2.706 9.865 2.386.335-.049.675-.049 1.01 0 .33.082.644.215.933.393 1.306.724 2.572 1.517 3.794 2.375 3.317 2.332 6.285 5.135 9.651 7.398.677.535 1.486.88 2.341.996.76-.012 1.51-.192 2.191-.53 4.857-1.942 9.836-4.017 13.532-7.718.328-.295.596-.652.787-1.049.134-.402.198-.824.19-1.248.048-1.778.026-3.56-.068-5.343.014-.813-.164-1.617-.52-2.346-.387-.742-1.224-1.13-2.04-.948"/>
                    <path fill="#DEA095" d="M217.531 117.888c-.414.317-.862.587-1.336.806-1.03.432-2.19.35-3.308.32-1.692-.043-3.385.058-5.061.302-.42.029-.825.157-1.185.374-.362.232-.528.675-.408 1.088.113.218.28.404.486.539 1.355 1.093 2.812 2.23 4.541 2.429 2.07.272 4.051-.826 5.829-1.885l3.72-2.142c.557-.272 1.043-.67 1.419-1.161.52-.802.641-3.04-.622-3.274-1.034-.204-3.274 2.006-4.075 2.604z"/>
                    <path fill="#FFF" d="M227.464 100.775c.245-.079.497-.131.753-.155 1.282-.122 2.74.194 4.027.252 1.812.078 3.628.122 5.445.063 3.463-.102 9.146-.485 12.245 3.303 3.842 4.678.53 12.902-2.152 19.07-.971 2.303-1.486 9.759-.971 15.209 0 0-10.783 3.774-20.27 1.807l-3.254-12.212c-.18-.631-.743-1.302-1.02-1.904-.751-1.633-1.3-3.353-1.632-5.12-.389-2.04-.972-5.435-.097-7.397.13-.301.583-.534.621-.85.054-.437-.524-1.166-.704-1.56-.592-1.272-1.068-2.595-1.423-3.953-.08-.208-.09-.437-.03-.651.085-.17.213-.313.37-.418 1.423-1.141 2.851-2.283 4.372-3.313 1.034-.714 2.409-1.773 3.72-2.17z"/>
                    <path fill="#FDBAAC" d="M239.476 92.134c-.718 2.288-3.725 6.315-7.164 5.387.825 1.493.72 3.328-.272 4.716 0 0 1.117 2.851 8.665-1.365 0 0-2.04-.17-1.486-4.371.166-1.44.676-2.82 1.486-4.022-.188.183-.46.252-.713.18-.253-.07-.45-.27-.516-.525z"/>
                    <path fill="#DEA095" d="M239.132 93.285s-1.657 7.038-4.464 6.742c-2.808-.296-2.628-4.58-2.628-4.58l7.092-2.162z"/>
                    <path fill="#FC682D" d="M253.791 106.789c.194-2.16-.45-4.31-1.797-6.009-1.574-1.836-3.988-2.662-6.237-3.556-.972-.378-1.982-.869-2.385-1.811-.267-.622-.209-1.331-.316-2.002-.107-.67-.485-1.398-1.175-1.49-.422-.025-.837.12-1.151.402-1.428 1.098-1.885 3.114-1.56 4.887.326 1.773 1.302 3.342 2.313 4.828 1.01 1.486 2.078 2.973 2.652 4.678.432 1.297.558 2.676.874 4.007.7 2.914 3.152 4.663 6.033 3.002 1.986-1.151 2.608-4.892 2.749-6.936zM231.71 76.003s-4.576.267-5.936 6.897c-1.36 6.63 5.25 6.519 5.25 6.519l4.018-11.502-3.332-1.914z"/>
                    <path fill="#FDBAAC" d="M234.76 97.86c-4.143.346-6.66-3.52-7.126-8.572-.048-.554-.068-1.118-.068-1.696-.007-1.647.182-3.289.564-4.891 1.811-7.772 12.852-4.648 12.852-4.648 8.651 3.88.977 19.21-6.222 19.808z"/>
                    <path fill="#FC682D" d="M231.797 77.878c1.078 3.745 2.52 9.068 6.179 11.123.417.233 1.19.627 1.69.525.5-.102.486-.559.942-.972.29-.29.732-.365 1.103-.19.302.23.472.593.452.972.003.935-.484 1.803-1.283 2.288-.362.166-.708.364-1.034.593-.364.359-.582.84-.612 1.35-.128 1.402.57 2.752 1.787 3.458.075.047.16.074.248.078.106-.022.202-.078.272-.16l1.637-1.496c.78-.662 1.482-1.41 2.093-2.23.752-1.112 1.157-2.422 1.166-3.764 0-.607-.243-1.22-.233-1.802.102-.769.306-1.52.607-2.235.366-.928.554-1.916.554-2.914-.131-1.943-1.749-3.488-3.493-4.372-2.759-1.365-5.945-1.52-9.025-1.554-.614-.04-1.23.043-1.811.243-.53.296-.748.879-1.239 1.059z"/>
                    <path fill="#FDBAAC" d="M239.132 125.062l3.162 6.946s6.8-8.481 9.389-17.637c2.263-8.092-1.749-10.128-1.749-10.128-3.07-1.127-5.153 3.25-8.17 12.09-1.661 4.843-2.632 8.729-2.632 8.729z"/>
                    <path fill="#FDBAAC" d="M242.294 131.993s.121-5.649-2.633-6.77c-2.754-1.123-22.057-4.149-22.057-4.149l-1.812 2.089s18.953 10.929 26.502 8.83z"/>
                    <path fill="#DC9ED5" d="M211.012 146.92l.234-.243c-.938 1.054-1.564 1.812-1.759 2.045.476-.628.985-1.229 1.525-1.802z"/>
                    <path fill="#FBB451" d="M247.962 148.027c-.563 3.289-2.807 6.116-5.542 8.034-2.735 1.919-5.93 3.046-9.132 4.017-1.89.578-3.065 3.002-4.77 4.008-.62.304-1.159.754-1.569 1.311-.621 1.006-.31 2.307 0 3.444 1.448 5.029 2.905 10.056 4.372 15.082.724 2.497 1.457 5.144.767 7.655-.69 2.511-3.332 4.673-5.794 3.842l-14.446-23.315s-2.375-9.384 2.608-17.365c2.152-3.439 19.007-17.632 19.007-17.632 4.309-.627 8.69-.918 12.853-1.156.49 4.051 2.346 8.053 1.646 12.075z"/>
                    <path fill="#FBB451" d="M233.478 137.093s-17.2 14-19.007 17.633c-5.047 10.137-2.609 17.365-2.609 17.365l-12.629 20.313c-2.914.063-6.844-.729-6.99-3.653.018-.824.214-1.634.574-2.375l9.515-23.704c1.88-4.702 3.828-9.5 6.84-13.532l.267-.35v-.03l.039-.048c.194-.233.82-.971 1.758-2.045v-.029c2.735-3.055 8.073-8.524 13.008-10.686 0 0 5.727 1.579 9.18 1.156l.054-.015z"/>
                    <path fill="url(#0rfvn6alre)" d="M233.478 137.093s-17.2 14-19.007 17.633c-5.047 10.137-2.609 17.365-2.609 17.365l-12.629 20.313c-2.914.063-6.844-.729-6.99-3.653.018-.824.214-1.634.574-2.375l9.515-23.704c1.88-4.702 3.828-9.5 6.84-13.532l.267-.35v-.03l.039-.048c.194-.233.82-.971 1.758-2.045v-.029c2.735-3.055 8.073-8.524 13.008-10.686 0 0 5.727 1.579 9.18 1.156l.054-.015z"/>
                    <path fill="#EB9D80" d="M224.647 199.865c-1.127 1.04-2.628 2.079-2.574 3.614-.006.151.037.3.121.427.157.155.368.242.588.243 3.468.384 6.693-1.73 9.389-3.949.68-.559 1.39-1.2 1.55-2.064.16-.865-.297-1.734-.69-2.531-.639-1.295-1.16-2.644-1.56-4.032.122.413-1.622 1.88-1.918 2.138-.622.544-1.54.937-2.026 1.598-.485.66-.587 1.457-.971 2.113-.505.908-1.15 1.733-1.909 2.443zM188.848 193.366c-1.219.432-2.632.665-3.4 1.7-.15.184-.24.41-.257.646 0 .641.743.971 1.37 1.117 2.501.51 5.085.15 7.611-.214.821.014 1.515-.606 1.593-1.423l.996-3.07c.042-.09.054-.19.034-.286-.042-.095-.114-.173-.204-.224-.683-.478-1.41-.89-2.171-1.229-1.025-.485-1.093-.442-1.778.37-1.016 1.186-2.323 2.087-3.794 2.613z"/>
                    <path fill="#FDBAAC" d="M215.535 120.69c-1.997-.315-4.24-.573-5.853.637-.767.658-1.394 1.462-1.846 2.365-.316.54-.637 1.185-.38 1.749.258.563.89.738 1.458.879 1.841.447 3.823.865 5.586.175 1.302-.486 2.356-1.589 3.72-1.914.232-.032.454-.107.656-.223.187-.156.318-.367.374-.603.821-2.74-1.889-2.807-3.715-3.065z"/>
                    <path fill="#FBB451" d="M194.148 198.947c-.07.143-.177.264-.311.35-.201.07-.42.07-.622 0-1.127-.152-2.266-.191-3.4-.117-2.326-.037-4.646-.248-6.941-.631-1-.146-2.113-.355-2.691-1.18-.075-.094-.122-.207-.136-.326.006-.18.077-.353.2-.486 1.006-1.205 2.328-2.107 3.817-2.604.55-.233 1.14-.362 1.739-.378.606-.012 1.186.246 1.583.704.413.524.486 1.277.938 1.749.452.47 1.229.529 1.909.485.79-.028 1.575-.117 2.35-.267.588-.112 1.458-.515 2.04-.364 1.366.374-.092 2.38-.475 3.065zM234.59 199.913c.027.18.004.363-.068.53-.145.197-.352.339-.588.403-1.174.572-2.285 1.264-3.317 2.064-2.216 1.437-4.536 2.705-6.941 3.794-1.04.486-2.23 1.005-3.303.593-.13-.042-.246-.117-.336-.219-.107-.174-.148-.38-.116-.583.18-1.78.854-3.476 1.943-4.896.375-.57.854-1.065 1.413-1.457.566-.395 1.277-.52 1.943-.34.724.233 1.258.908 2.001 1.059.744.15 1.506-.277 2.133-.734.73-.53 1.418-1.117 2.06-1.753.485-.486 1.044-1.409 1.7-1.642 1.505-.54 1.423 2.278 1.476 3.181z"/>
                    <path fill="#FFF" d="M252.912 106.997c.478 1.484.803 3.012.971 4.561l.297 2.09c.105.432.081.886-.068 1.306-.345.733-1.74.432-2.43.544-1.233.199-2.462.393-3.696.583-2.467.379-4.935.741-7.402 1.088-.13-1.254-.1-2.519.092-3.765.228-1.185.739-2.297 1.03-3.468.238-.971.325-1.943.573-2.914.522-1.996 1.711-3.754 3.371-4.98 2.599-1.898 6.412 2.702 7.208 4.77l.054.185z"/>
                    <path fill="#2F3653" d="M269.587 144.22c-3.225 7.436-10.482 12.565-18.259 14.868-6.062 1.792-12.449 2.069-18.802 1.704 0-.432.252-.694.782-.718 6.086-.306 8.607-8.307 10.433-12.377 1.827-4.07 3.075-9.185 14.96-13.902 11.58-4.585 10.167-13.212 10.745-11.473 2.735 8.18 3.57 13.985.141 21.897z"/>
                    <path fill="#FFF" d="M270.418 144.56c-3.226 7.43-10.482 12.56-18.26 14.868-6.061 1.787-14.202 2.093-20.555 1.724 0-.428 1.175-1.054 1.705-1.078 6.086-.306 8.743-9.807 10.57-13.878 1.826-4.07 3.501-6.46 14.824-12.4 16.918-8.87 4.677-20.936 4.464-21.708 4.056 1.307 6.314 9.55 6.887 11.288 2.735 8.18 3.794 13.266.365 21.183z"/>
                    <path fill="#FBB451" d="M247.438 158.126c-5.144 1.311-10.59 1.36-15.597 3.133 1.588-.564 4.915.31 6.683.257 2.43-.074 4.85-.329 7.243-.762 4.23-.768 9.836-1.943 13.323-4.552-2.273-1.933-9.136 1.283-11.652 1.924z" opacity=".23"/>
                    <path fill="#FBB451" d="M250.522 203.498c-.078.05-.163.087-.253.112-.158.043-.324.05-.485.024-1.802-.223-10.648-42.341-10.648-42.341l1.21-.705c.087-.048.19-.102.277-.14.622-.263 1.324-.26 1.945.006.62.267 1.106.775 1.343 1.407v.049c.05.127.088.259.112.393l6.956 38.572s.412 2.03-.457 2.623z"/>
                    <path fill="url(#d4jm0bj6xf)" d="M250.721 200.03s-.073 2.429-.199 3.468c-.078.486-.15.68-.253.112-.869-5.095-8.092-36.372-9.651-43.153.622-.262 1.325-.26 1.945.007.62.266 1.106.775 1.343 1.407v.048l6.815 38.111z"/>
                    <path fill="#FBB451" d="M64.243 154.648s-13.489 43.59-12.031 44.658c1.457 1.069 2.39-1.836 2.39-1.836l13.639-40.51-3.998-2.312zM93.29 159.68l.126.316 15.398 39.505c.233.61.585 1.168 1.035 1.641.176.213.433.343.71.36.275.016.546-.082.747-.272 1.409-1.137-13.057-41.662-13.057-41.662l-4.959.112zM81.793 156.78s.485 45.63 2.195 46.198c1.71.569 1.74-2.482 1.74-2.482l.582-42.744-4.517-.972z"/>
                    <path fill="url(#qxig57u7cg)" d="M66.657 155.177s-14.708 42.26-13.236 43.308c1.472 1.05 1.17-1.02 1.17-1.02l13.65-40.505-1.584-1.783z"/>
                    <path fill="url(#73ckewk7wh)" d="M93.416 159.996l15.398 39.505c.233.61.585 1.168 1.035 1.641-.049-4.527-13.159-41.219-13.159-41.219l-3.274.073z"/>
                    <path fill="url(#2dtt6ha8mi)" d="M81.793 156.78s.485 45.63 2.195 46.198c1.71.569.656-3.439.656-3.439l-.607-42.258-2.244-.5z"/>
                    <path fill="#2F3653" d="M51.881 144.22c3.225 7.436 10.482 12.565 18.259 14.868 6.062 1.792 12.45 2.069 18.803 1.704 1.777-.093 3.55-.23 5.318-.408 3.11-.31 6.262-.714 9.171-1.85 2.91-1.137 5.62-3.1 7.097-5.873.901-1.825 1.398-3.823 1.457-5.858.306-5.216-1.346-10.764-5.343-14.086-3.138-2.623-7.233-3.643-10.487-6.077-3.643-2.734-7.383-5.177-11.24-7.635s-7.772-4.94-12.085-6.504c-4.313-1.564-9.122-2.152-13.484-.768-1.51.486-3.837 1.657-6.115 7.233-3.28 7.97-4.78 17.34-1.35 25.253z"/>
                    <path fill="#FFF" d="M63.437 117.144c.581 1.246 1.034 2.548 1.35 3.886.292 1.632.792 3.235 1.078 4.882.577 3.302.852 6.65.821 10.001 0 1.326 0 2.822.948 3.74.64.617 1.559.816 2.428.972 1.715.345 3.264 1.025 4.979 1.316 1.869.271 3.757.385 5.644.34 5.567 0 15.923-.622 15.578-8.384-.333-8.763-1.104-17.504-2.312-26.19-.418-2.944-.486-6.34-1.394-9.171-.748-2.385-3.527-2.404-5.83-2.162l-.436.049c-.447.044-.894.102-1.326.155-3.066.32-6.15.41-9.23.272-3.463-.106-9.01-.451-12.415 2.813-.236.224-.459.462-.665.714-3.386 4.133-1.57 10.841.782 16.767z"/>
                    <path fill="#D9DBE2" d="M76.348 116.285c.296 3.886-.807 8.029 1.233 11.278.094.183.241.332.423.428.293.057.596.023.87-.097.635-.127 1.295.024 1.811.416.517.392.84.987.89 1.633.978-.738 1.592-1.861 1.685-3.084.043-.675 0-1.496.563-1.865.729-.486 1.671.374 1.826 1.229.156.855-.087 1.758.156 2.594.31 1.092 1.404 1.807 2.511 2.04 1.127.166 2.273.166 3.4 0 .819-.123 1.654-.034 2.429.257.748.355 1.326 1.205 1.098 2.001-.272.947-1.419 1.278-2.39 1.458l-13.338 2.486-6.864 1.283c-1.5.277-4.153 1.603-4.201-.617-.07-3.32-.59-6.616-1.545-9.797-.384-1.283-.427-2.594-.802-3.838-.456-1.51-1.296-2.958-1.811-4.468-1.038-3.037-1.737-6.18-2.084-9.37-.243-2.244-.088-4.95 1.836-6.12 1.39-.84 3.26-.486 4.566.485 1.593 1.18 2.327 3.036 3.798 4.28 1.71 1.457 3.041 3.099 3.614 5.318.168.68.277 1.372.326 2.07z" opacity=".43"/>
                    <path fill="#FBB451" d="M83.148 102.436c-.11.147-.194.311-.248.486-.01.191.028.382.112.554 1.875 4.702 3.05 9.647 4.216 14.572 1.03 4.333 2.064 8.7 2.278 13.149.032.325.008.654-.073.971-.34 1.098-1.773 1.457-2.4 2.405l-2.083-2.38c-.136-.14-.245-.306-.32-.486-.064-.252-.064-.516 0-.768.704-4.755-.078-9.608-1.19-14.29-.972-4.022-2.172-8.049-2.099-12.182 0-.486 0-1.079-.374-1.404-.212-.144-.445-.255-.69-.33-.562-.276-.99-.765-1.187-1.359-.197-.594-.147-1.242.138-1.799.442-.007.876-.119 1.268-.325.396-.206.851-.266 1.287-.17.962.33 1.914 2.453 1.365 3.356z"/>
                    <path fill="#FFF" d="M63.325 99.673c3.4-3.265 8.952-2.915 12.415-2.813 3.08.138 6.164.047 9.23-.272.432-.053.879-.112 1.325-.155-1.83-.748-4.43-.248-6.382-.185-2.96.097-5.918.277-8.874.54-2.798.257-5.897.738-7.714 2.885z"/>
                    <path fill="#D5846C" d="M73.827 87.461c.777 2.429 3.915 4.77 7.587 3.76 0 0-1.457 4.371.364 7.038 0 0-1.19 3.046-9.263-1.457 0 0 2.181-.18 1.589-4.658-.175-1.54-.72-3.015-1.589-4.3.203.197.496.269.767.19.271-.08.48-.298.545-.573z"/>
                    <path fill="#EB9D80" d="M77.785 93.11c4.255 1.253 7.724-2.254 9.302-7.441.17-.564.316-1.156.437-1.759.366-1.722.53-3.48.486-5.24-.248-8.496-12.483-7.631-12.483-7.631-9.88 2.2-5.149 19.895 2.258 22.071z"/>
                    <path fill="#DC9ED5" d="M104.248 145.997l-.252-.262c1 1.127 1.675 1.943 1.88 2.185-.506-.66-1.055-1.306-1.628-1.923z"/>
                    <path fill="#FC682D" d="M67.808 71.631c.737-1.537 1.966-2.783 3.493-3.54 1.399-.74 3.439-.593 4.585-1.745.617-.617.738-1.554 1.093-2.35.364-.802.973-1.467 1.739-1.9.5-.284 1.058-.45 1.632-.486 1.773-.082 3.371 1.288 4.056 2.915.486-.802 1.491-1.112 2.429-1.093 2.156.044 4.133 1.569 5.022 3.536.365.77.532 1.618.486 2.468-.05.857-.42 1.664-1.04 2.258-.13.137-.3.229-.485.263-.187.032-.37-.075-.433-.253-.612 1.29-1.373 2.502-2.268 3.614-.301.414-.7.748-1.161.971-.458.164-.954.192-1.428.083-.65-.12-1.273-.361-1.836-.71-.1-.08-.227-.119-.355-.106-.126.034-.194.16-.257.277-.352.69-.978 1.2-1.724 1.408-.647.088-1.305.063-1.943-.072-.876-.11-1.762-.11-2.638 0-.535.046-1.053.212-1.515.485-.57.427-.904 1.096-.904 1.807 0 .277.272 2.56-.063 2.613-.54.093-.646-.801-1.117-1.078s-.928.083-1.17.486c-.41.716-.322 1.611.218 2.234.163.14.29.316.369.515.028.201-.006.406-.097.588l-.83 2.088c-1.113-2.627-2.447-5.156-3.989-7.558-.655-.971-1.418-2.054-1.127-3.176.292-1.122 1.506-1.943 1.254-3.036-.049-.209-.151-.403-.18-.617-.023-.308.04-.616.184-.889z"/>
                    <path fill="#2F3653" d="M74.822 136.112s5.183 12.935 9.341 14.29c4.158 1.356 29.97 9.147 29.97 9.147l10.973 37.178 2.836-1.739c1.074-.66 3.638-1.613 4.29-2.686.864-1.414-.438-5.125-.686-6.732l-1.122-7.286c-1.509-9.851-3.023-19.703-4.541-29.557.001-1-.625-1.891-1.564-2.23-5.078-2.719-10.294-5.172-15.626-7.349-2.614-1.068-5.251-2.06-7.908-3.002-.525-.184-4.415-2.312-4.522-2.23-.034.015-2.793 2.09-21.44 2.196z"/>
                    <path fill="#4C516C" d="M122.026 198.092c-1.195-2.642-1.297-5.62-1.647-8.496-.257-2.166-.67-4.308-1.083-6.45l-5.644-29.474c-.047-1.286-.903-2.401-2.132-2.779-9.064-4.425-17.973-9.068-26.959-13.668 0 0-9.714-3.527-16.927 1.399 0 0-.972 11.798 3.186 13.153 9.187 2.996 18.447 5.732 27.78 8.21.437.088.852.27 1.213.533.409.408.692.924.816 1.487 3.4 10.35 6.8 20.707 9.905 31.14.369 1.23.733 2.46 1.092 3.687.277.937.486 3.4 1.171 4.05.908.919 2.108 0 3.322-.485l6.626-2.671-21.43-51.916-3.12-1.603"/>
                    <path fill="#2F3653" d="M136.953 193.099c1.098.025 2.192.134 3.273.325 1.012.111 1.972.502 2.774 1.127.454.398.758.94.86 1.535.09.6-.098 1.21-.51 1.656-.39.336-.85.583-1.346.724-1.156.408-2.313.811-3.473 1.21-2.482.854-5.003 1.719-7.626 1.86-.155.021-.314.004-.461-.049-.114-.057-.216-.134-.301-.228-1.574-1.54-3.06-3.347-3.44-5.518-.019-.073-.019-.15 0-.223.043-.081.107-.149.185-.195 1.584-1.071 3.324-1.89 5.159-2.428 1.66-.481 3.225.17 4.906.204z"/>
                    <path fill="#2F3653" d="M124.396 198.082c1.098.026 2.193.135 3.274.326 1.011.111 1.972.501 2.774 1.127.454.397.758.94.86 1.534.09.601-.098 1.21-.51 1.657-.391.336-.85.583-1.346.724-1.156.408-2.314.81-3.473 1.209-2.482.855-5.003 1.72-7.626 1.86-.163.026-.33.01-.486-.048-.113-.057-.215-.135-.3-.228-1.575-1.54-3.061-3.347-3.44-5.518-.02-.074-.02-.15 0-.224.042-.08.106-.148.185-.194 1.583-1.071 3.324-1.89 5.158-2.429 1.686-.48 3.225.165 4.93.204zM51.881 144.22c3.225 7.436 10.482 12.565 18.259 14.868 6.062 1.792 12.45 2.069 18.803 1.704 0-.432-.253-.694-.782-.718-6.087-.306-8.608-8.307-10.434-12.377-1.826-4.07-3.075-9.185-14.96-13.902-11.58-4.585-10.167-13.212-10.745-11.473-2.725 8.18-3.57 13.985-.14 21.897z"/>
                    <path fill="#FFF" d="M51.05 144.56c3.226 7.43 10.483 12.56 18.26 14.868 6.061 1.787 14.202 2.093 20.556 1.724 0-.428-1.176-1.054-1.705-1.078-6.087-.306-8.744-9.807-10.57-13.878-1.826-4.07-3.521-6.46-14.824-12.39-16.919-8.87-4.678-20.936-4.464-21.708-4.056 1.306-6.315 9.55-6.888 11.288-2.735 8.17-3.794 13.256-.364 21.173z"/>
                    <path fill="#FBB451" d="M74.03 158.126c5.145 1.311 10.59 1.36 15.598 3.133-1.589-.564-4.916.31-6.684.257-2.428-.074-4.847-.329-7.238-.762-4.235-.768-9.836-1.943-13.328-4.552 2.273-1.933 9.137 1.283 11.653 1.924z" opacity=".23"/>
                    <path fill="#FBB451" d="M70.946 203.498c.079.05.164.087.253.112.158.042.324.05.486.024 1.802-.223 10.647-42.341 10.647-42.341l-1.21-.705c-.087-.048-.19-.102-.276-.14-.623-.263-1.325-.26-1.946.006-.62.267-1.105.775-1.343 1.407v.049c-.054.126-.093.258-.116.393l-6.956 38.572s-.408 2.03.461 2.623z"/>
                    <path fill="url(#2t2ks02ylj)" d="M70.747 200.03s.073 2.429.2 3.468c.077.486.15.68.252.112.87-5.095 8.092-36.372 9.651-43.153-.622-.262-1.324-.26-1.945.007-.62.266-1.105.775-1.343 1.407v.048l-6.815 38.111z"/>
                    <path fill="#FFF" d="M80.646 140.775c-.107.636-.442 1.211-.942 1.618-.539.445-1.186.74-1.875.855-1.316.209-2.662-.156-3.934-.554-4.076-1.263-8.039-2.865-11.847-4.79-1.254-.63-2.54-1.34-3.294-2.525-.83-1.331-.84-3.007-.796-4.57.188-6.551.754-13.086 1.695-19.571.408-2.87.374-7.315 2.093-10.055.856-1.463 2.406-2.38 4.1-2.428 2.73-.166 4.989 2.428 5.489 5.11.5 2.68-.277 5.43-.972 8.072-.971 3.808-1.816 7.67-2.428 11.556-.287 1.73-.51 3.604.32 5.154.393.668.884 1.274 1.458 1.797 2.31 2.25 4.855 4.245 7.592 5.95 1.656 1.044 3.628 2.453 3.341 4.381zM119.126 118.077c-.27 1.382-1.138 2.574-2.37 3.254-1.219.664-2.528 1.147-3.886 1.433l-5.576 1.458c-2.915.767-6.427 1.374-8.588-.73-.783-.72-1.149-1.787-.972-2.836.06-.262.175-.508.336-.723.41-.453.905-.82 1.457-1.084 1.608-.952 3.007-2.22 4.114-3.725-3.303-1.234-6.742-2.492-9.506-4.634-.514-.387-1.001-.809-1.457-1.263-2.032-2.046-3.412-4.65-3.964-7.48-.242-1.186-.655-3.167-.223-4.343.588-1.608 1.695-.864 3.269-.413 6.018 1.73 11.585 4.814 16.559 8.569 2.867 2.193 5.579 4.582 8.116 7.15 1.462 1.462 2.978 3.303 2.691 5.367z"/>
                    <path fill="#D9DBE2" d="M105.87 116.965c-1.942 1.345-3.944 2.642-5.964 3.886-.588.364-1.404.718-1.904.233-.139-.128-.23-.3-.258-.486.06-.262.175-.508.335-.724.411-.452.906-.82 1.458-1.083 1.607-.953 3.007-2.22 4.114-3.726-3.313-1.175-6.752-2.433-9.516-4.575v-.408c0-.486-.102-4.022-.379-4.192l12.416 7.684c.482.227.87.616 1.097 1.098.316.899-.587 1.739-1.398 2.293z" opacity=".38"/>
                    <path fill="#EB9D80" d="M93.839 124.192c-.356.91-.545 1.875-.559 2.852-.141 1.327.072 2.667.617 3.886.612 1.18 1.88 2.098 3.201 1.942.915-.135 1.722-.669 2.205-1.457.475-.784.728-1.682.734-2.598.607-.156.942-.807 1.093-1.419.08-.622.275-1.225.573-1.778.37-.52 1.005-.81 1.316-1.37.26-.536.24-1.166-.053-1.685-.797-1.54-3.289-2.87-4.92-2.156-1.633.714-3.45 2.05-4.207 3.783zM78.179 142.233c1.025 1.525 3.191 1.729 5.008 1.457 1.854-.268 3.646-.86 5.294-1.749.438-.182.796-.514 1.01-.937.093-.298.093-.616 0-.914-.302-1.002-1.005-1.836-1.942-2.302-.931-.456-1.92-.783-2.939-.971-1.647-.374-3.4-.748-4.989-.195-1.588.554-1.884.486-2.059 2.08-.092 1.155-.049 2.554.617 3.53z"/>
                    <path fill="#FFF" d="M73.2 94.772l3.298 1.71c1.163.54 2.253 1.226 3.245 2.04-.601 1.335-.993 2.756-1.161 4.21-.868-1.08-1.875-2.04-2.997-2.855-1.044-.69-2.259-1.118-3.235-1.91-1.151-.932.262-2.243.85-3.195zM83.546 98.016l1.54 2.05c.105.117.178.26.214.413-1.186-.556-2.436-.964-3.721-1.214-.143-.005-.276-.073-.364-.185-.046-.102-.054-.217-.025-.325.097-.77-.033-1.552-.374-2.25-.14-.217-.23-.462-.267-.718-.063-1.137 1.147.058 1.428.335.569.592 1.093 1.225 1.57 1.894z"/>
                    <path fill="#FBB451" d="M182.136 99.265v4.371c0 1.852-.734 3.629-2.043 4.939-1.31 1.31-3.085 2.046-4.937 2.046h-59.153c-3.854-.013-6.969-3.146-6.96-7V99.25l73.093.015z" opacity=".41"/>
                    <path fill="#D9DBE2" d="M79.704 142.393c-.539.445-1.186.74-1.875.855-1.316.209-2.662-.156-3.934-.554-4.076-1.263-8.039-2.865-11.847-4.79-1.254-.63-2.54-1.34-3.294-2.525-.83-1.331-.84-3.007-.796-4.57.188-6.551.754-13.086 1.695-19.571.408-2.87.374-7.315 2.093-10.055.507.146 1.003.325 1.487.534.66.222 1.225.658 1.608 1.24.417.767.242 1.719.043 2.583-1.81 8.253-3.058 16.618-3.735 25.04-.185.805.15 1.64.84 2.093 1.655 1.495 3.42 2.862 5.28 4.09 2.915 1.943 6.45 4.168 9.919 4.809.986.19 1.792.2 2.516.82z" opacity=".43"/>
                    <rect width="77.907" height="27.094" x="166.918" y="29.227" fill="#FFF" rx="6.605"/>
                    <path fill="#FFF" d="M214.388 65.268L207.365 55.296 214.388 55.296z"/>
                </g>
            </g>
        </g>
    </g>
</svg>
