<svg xmlns="http://www.w3.org/2000/svg" width="260" height="200" viewBox="0 0 260 200">
    <defs>
        <linearGradient id="58zlkflqia" x1="23.227%" x2="113.741%" y1="239.99%" y2="-331.461%">
            <stop offset="1%"/>
            <stop offset="8%" stop-opacity=".69"/>
            <stop offset="21%" stop-opacity=".32"/>
            <stop offset="100%" stop-opacity="0"/>
        </linearGradient>
    </defs>
    <g fill="none" fill-rule="evenodd">
        <g>
            <g transform="translate(-118 -4200) translate(118 4200)">
                <path fill="#FBB451" fill-rule="nonzero" d="M115.757.19c-1.216-.042-2.424-.07-3.625-.098-19.28-.403-38.958.247-57.165 6.599C36.76 13.042 19.98 25.915 12.98 43.86 9.354 53.18 8.499 63.297 7.15 73.203 4.628 91.777.24 110.189.007 128.926c-.233 18.737 4.24 38.463 17.105 52.113 22.319 23.711 53.279 9.658 79.837 3.271 15.761-3.777 32.157-4.068 48.043-.855 10.485 2.12 20.61 5.773 31.087 8.02 7.539 1.617 15.381 2.508 23.061 1.511 7.376-.953 13.064-4.472 19.783-7.305 12.788-5.426 25.717-12.336 33.87-23.986 6.25-9.147 9.117-20.183 8.111-31.215-2.508-29.08-29.674-41.289-43.698-64.145-8.167-13.282-13.735-28.345-24.24-39.862-18.85-20.63-49.048-25.385-77.21-26.282z" opacity=".18"/>
                <path fill="#FBB451" fill-rule="nonzero" d="M157.392 29.497v144.237c0 6.957-5.64 12.597-12.597 12.597H82.366c-6.957 0-12.597-5.64-12.597-12.597V29.497c-.002-3.342 1.325-6.548 3.687-8.912 2.363-2.364 5.568-3.692 8.91-3.692h62.429c3.342 0 6.547 1.328 8.91 3.692 2.362 2.364 3.689 5.57 3.687 8.912z"/>
                <rect width="84.168" height="164.895" x="71.493" y="19.034" fill="#473F47" fill-rule="nonzero" rx="8.974"/>
                <path fill="#FFF" fill-rule="nonzero" d="M153.372 32.592v136.083c-.066 6.424-5.326 11.58-11.75 11.517H85.588c-2.047.006-4.06-.52-5.843-1.527-3.64-2.01-5.905-5.832-5.92-9.99V32.592c.07-6.428 5.335-11.583 11.763-11.517h9.467v1.675c.05 2.246 1.442 4.243 3.533 5.066.686.27 1.417.41 2.155.41h26.028c3.103.02 5.641-2.466 5.688-5.568v-1.583h9.184c3.014-.006 5.917 1.136 8.118 3.194 2.306 2.154 3.614 5.168 3.61 8.323z"/>
                <rect width="34.612" height="2.056" x="83.702" y="113.637" fill="#FBB451" fill-rule="nonzero" opacity=".31" rx=".755"/>
                <rect width="34.612" height="2.056" x="83.702" y="118.66" fill="#FBB451" fill-rule="nonzero" opacity=".31" rx=".755"/>
                <path fill="#FBB451" fill-rule="nonzero" d="M69.762 95.133H157.392V100.637H69.762z" opacity=".18"/>
                <path fill="#FBB451" fill-rule="nonzero" d="M56.656 81.25h106.727c3.953 0 7.157 3.204 7.157 7.157s-3.204 7.157-7.157 7.157H56.656V81.25z"/>
                <path fill="#FFF" fill-rule="nonzero" d="M56.656 81.25H142.838V95.557H56.656z"/>
                <circle cx="155.633" cy="87.595" r="3.455" stroke="#FFF" stroke-width=".755"/>
                <path stroke="#FFF" stroke-width=".755" d="M158.791 93.211L157.378 90.576"/>
                <rect width="55.702" height="3.307" x="83.702" y="108.543" fill="#FBB451" fill-rule="nonzero" rx="1.218"/>
                <rect width="34.612" height="2.056" x="83.702" y="130.926" fill="#FBB451" fill-rule="nonzero" opacity=".31" rx=".755"/>
                <rect width="34.612" height="2.056" x="83.702" y="135.949" fill="#FBB451" fill-rule="nonzero" opacity=".31" rx=".755"/>
                <rect width="55.702" height="3.307" x="83.702" y="125.824" fill="#FBB451" fill-rule="nonzero" rx="1.218"/>
                <rect width="34.612" height="2.056" x="83.702" y="148.207" fill="#FBB451" fill-rule="nonzero" opacity=".31" rx=".755"/>
                <rect width="34.612" height="2.056" x="83.702" y="153.238" fill="#FBB451" fill-rule="nonzero" opacity=".31" rx=".755"/>
                <rect width="55.702" height="3.307" x="83.702" y="143.113" fill="#FBB451" fill-rule="nonzero" rx="1.218"/>
                <g fill="url(#58zlkflqia)" fill-rule="nonzero" opacity=".41" transform="translate(103.859 55.109)">
                    <path d="M42.292 5.235c3.816-.004 7.61.59 11.241 1.76V1.83c-17-4.752-35.15 1.708-45.327 16.13-10.176 14.424-10.176 33.69 0 48.113 10.176 14.423 28.327 20.882 45.327 16.13V77.04c-13.816 4.434-28.949.33-38.632-10.476C5.217 55.756 2.792 40.266 8.71 27.017c5.918-13.25 19.072-21.781 33.582-21.782z"/>
                </g>
                <path fill="#FBB451" fill-rule="nonzero" d="M148.377 136.84c-16.881 0-32.1-10.172-38.555-25.77-6.456-15.597-2.879-33.548 9.064-45.479 11.943-11.93 29.897-15.49 45.488-9.018 15.591 6.472 25.747 21.7 25.73 38.581-.05 23.018-18.71 41.658-41.727 41.685zm0-78.51c-20.309 0-36.774 16.46-36.782 36.768-.008 20.308 16.445 36.78 36.753 36.795 20.309.016 36.787-16.43 36.81-36.739-.008-20.314-16.467-36.783-36.781-36.802v-.022z"/>
                <path fill="#FBB451" fill-rule="nonzero" d="M204.891 156.94c-1.136 0-2.226-.455-3.024-1.265l-27.342-27.745c-1.068-1.078-1.478-2.645-1.075-4.108.403-1.463 1.556-2.599 3.025-2.979 1.47-.38 3.03.054 4.09 1.138l27.343 27.745c1.199 1.217 1.55 3.034.89 4.61-.658 1.576-2.199 2.602-3.907 2.604z"/>
                <path fill="#473F47" fill-rule="nonzero" d="M217.99 165.757c-.942.932-2.217 1.451-3.543 1.442-1.325-.01-2.593-.546-3.522-1.491l-32.19-32.67c-.179-.178-.342-.372-.487-.58-.084-.112-.162-.225-.233-.338-.47-.792-.39-1.794.198-2.502.625-.744 1.308-1.439 2.042-2.077.843-.748 1.756-1.413 2.727-1.985.813-.488 1.847-.4 2.565.219.097.076.189.16.275.247l32.246 32.677c.926.946 1.439 2.221 1.424 3.545-.014 1.324-.555 2.588-1.502 3.513z"/>
                <path fill="#FBB451" fill-rule="nonzero" d="M102.234 52.332v14.385c0 3.926-3.175 7.113-7.1 7.129H69.768V45.203h25.364c3.926.016 7.1 3.203 7.1 7.13z" opacity=".18"/>
                <rect width="61.467" height="28.642" x="39.537" y="41.423" fill="#FFF" fill-rule="nonzero" rx="5.252"/>
                <circle cx="98.849" cy="42.285" r="5.136" fill="#FBB451" fill-rule="nonzero"/>
                <rect width="36.202" height="2.833" x="51.675" y="50.573" fill="#FBB451" fill-rule="nonzero" rx="1.041"/>
                <rect width="36.202" height="2.833" x="51.675" y="58.111" fill="#FBB451" fill-rule="nonzero" rx="1.041"/>
                <path fill="#FBB451" fill-rule="nonzero" d="M214.733 188.012c.619.774.703 1.846.212 2.706-.516.823-1.503 1.22-2.444.983-.162-.041-.312-.118-.439-.227-.26-.254-.303-.706-.55-.96-.258-.212-.568-.349-.898-.396-.584-.214-1.134-.511-1.632-.883-.08-.046-.15-.109-.205-.184-.05-.093-.077-.198-.078-.304-.12-.543-.037-1.11.234-1.596.148-.182.33-.333.537-.446.389-.24.835-.375 1.292-.388.357.024.708.105 1.04.24.938.27 1.82.71 2.6 1.3"/>
                <path fill="#FCBDBA" fill-rule="nonzero" d="M212.903 183.682l1.576 5.426s-.297 1.363-1.964.79c-1.668-.571-3.067-4.846-3.067-4.846l3.455-1.37z"/>
                <path fill="#FBB451" fill-rule="nonzero" d="M196.272 195.028c-.43-.073-.865-.103-1.3-.092-.441.02-.855.219-1.145.552-.427.687-.295 1.583.311 2.12.593.489 1.319.789 2.084.861.465.106.948.106 1.413 0 .587-.17 1.145-.657 1.731-.473.256.106.495.252.707.43.83.602 1.986.457 2.642-.331.17-.254.292-.537.36-.834.248-.94.135-2.12-.642-2.664-.919-.657-1.632-.205-2.516.1-1.178.366-2.42.48-3.645.331z"/>
                <path fill="#FCBDBA" fill-rule="nonzero" d="M197.035 189.765l2.303 5.652s1.321.798 2.26.445l.926-.382-.812-7.891-4.677 2.176zM179.916 132.31c-.156-.205-.36-.43-.608-.395-.247.035-.29.134-.438.092-.092-.033-.172-.095-.226-.177-.352-.373-.742-.707-1.166-.996-.258-.227-.569-.385-.904-.46-.5-.025-.966.254-1.18.707-.21.44-.263.939-.148 1.413.124.474.314.928.565 1.35.152.315.344.61.572.876.707.77 1.88.897 2.826 1.37.101.062.215.1.332.113.204-.033.38-.162.474-.346.366-.522.587-1.131.643-1.766-.051-.658-.311-1.282-.742-1.78zM189.1 126.185c-.113-.032-.234-.02-.339.035-.058.047-.11.102-.155.163-.198.212-.523.219-.791.339-.349.176-.606.492-.707.869-.094.371-.134.754-.12 1.137-.018.203.004.407.064.6.064.194.235.332.438.354.16-.029.313-.094.445-.19.269-.148.581-.198.883-.142.387.125.758.298 1.102.516.357.211.802.211 1.159 0 .156-.14.28-.315.36-.509.318-.706.707-1.49 0-2.063-.663-.577-1.472-.96-2.338-1.11z"/>
                <path fill="#473F47" fill-rule="nonzero" d="M210.098 152.15c-.165 2.971-.498 5.932-.996 8.866-.636 2.911-1.017 6.218-1.017 6.218l5.885 16.956s-3.582 2.381-5.885 1.456c-2.303-.926-8.132-13.926-8.132-13.926l-2.219-14.787 5.871-6.74 6.493 1.956zM193.855 150.97s-4.196 13.756-4.196 17.33c0 3.576 5.03 21.196 5.03 21.196s5.462 1.851 6.74 0l1.28-1.85-3.074-17.735s4.352-9.255 5.122-11.636c.466-1.467.8-2.974.996-4.5l-11.898-2.805z"/>
                <path fill="#FCBDBA" fill-rule="nonzero" d="M195.622 113.29c-.491.981-.804 2.04-.926 3.13-.112 1.098.363 2.172 1.25 2.827.268.127.517.289.743.48.79.806-.113 2.268.339 3.314.377.695 1.215.999 1.95.706.704-.332 1.223-.962 1.413-1.717.203-.757.293-1.54.268-2.324l.078-4.67c.111-1.04-.052-2.089-.473-3.045-.573-1.007-1.67-1.6-2.827-1.526-1.088.233-1.42 1.914-1.815 2.826z"/>
                <path fill="#FBB451" fill-rule="nonzero" d="M179.33 136.606s8.958 8.005 9.594 8.005c.636 0 4.613-5.03 4.613-5.03l.318 11.382c1.107.652 2.259 1.224 3.448 1.71 1.936.79 4.388 1.525 6.529 1.328 4.352-.396 6.266-1.852 6.266-1.852l-2.677-26.805s-5.073-3.653-6.804-3.095c-1.24.222-2.511.222-3.752 0-2.5-.325-5.058 3.095-5.058 3.095l-3.328 10.93-7.807-2.77c-1.044.659-1.577 1.89-1.343 3.102z"/>
                <path fill="#F6A569" fill-rule="nonzero" d="M196.378 108.225c.94-.855 3.066-1.208 4.105-1.321 1.615-.23 3.25.249 4.486 1.314 1.696 1.61 1.872 4.24 1.851 6.655-.021 2.417-.056 5.01 1.357 6.847 1.215 1.568 3.2 2.218 4.747 3.426 1.546 1.146 2.524 2.901 2.685 4.819.36 7.263-10.732 4.147-14.399 2.529-.649-.25-1.245-.62-1.759-1.088-.542-.586-.941-1.29-1.166-2.056-.86-2.596-.714-5.42.41-7.913.17-.367.353-.827.12-1.152-.127-.144-.287-.255-.466-.325-.958-.397-1.595-1.316-1.632-2.352.152-.745.487-1.44.975-2.021.486-.591.65-1.384.438-2.12-.254-.572-.862-.855-1.314-1.271-.792-.707-1.364-2.607-.707-3.625.075-.126.165-.242.269-.346z"/>
            </g>
        </g>
    </g>
</svg>
