<svg xmlns="http://www.w3.org/2000/svg" width="112" height="112" viewBox="0 0 112 112">
    <defs>
        <linearGradient id="q6a1o1vm1a" x1="120.162%" x2="-56.383%" y1="118.419%" y2="-62.966%">
            <stop offset="1%"/>
            <stop offset="8%" stop-opacity=".69"/>
            <stop offset="21%" stop-opacity=".32"/>
            <stop offset="100%" stop-opacity="0"/>
        </linearGradient>
        <linearGradient id="vbh8gtu3sb" x1="55.131%" x2="18.312%" y1="36.33%" y2="126.367%">
            <stop offset="1%"/>
            <stop offset="8%" stop-opacity=".69"/>
            <stop offset="21%" stop-opacity=".32"/>
            <stop offset="100%" stop-opacity="0"/>
        </linearGradient>
        <linearGradient id="ghpjuttlbc" x1="11.08%" x2="196.214%" y1="34.237%" y2="104.311%">
            <stop offset="1%"/>
            <stop offset="8%" stop-opacity=".69"/>
            <stop offset="21%" stop-opacity=".32"/>
            <stop offset="100%" stop-opacity="0"/>
        </linearGradient>
        <linearGradient id="a66vg6lfed" x1="-25.514%" x2="388.068%" y1="52.346%" y2="39.503%">
            <stop offset="1%"/>
            <stop offset="8%" stop-opacity=".69"/>
            <stop offset="21%" stop-opacity=".32"/>
            <stop offset="100%" stop-opacity="0"/>
        </linearGradient>
        <linearGradient id="tldyp0dixe" x1="20.656%" x2="186.903%" y1="24.605%" y2="168.451%">
            <stop offset="1%"/>
            <stop offset="8%" stop-opacity=".69"/>
            <stop offset="21%" stop-opacity=".32"/>
            <stop offset="100%" stop-opacity="0"/>
        </linearGradient>
        <linearGradient id="oppd5c8uqf" x1="29.665%" x2="122.283%" y1="35.906%" y2="98.694%">
            <stop offset="1%"/>
            <stop offset="8%" stop-opacity=".69"/>
            <stop offset="21%" stop-opacity=".32"/>
            <stop offset="100%" stop-opacity="0"/>
        </linearGradient>
    </defs>
    <g fill="none" fill-rule="evenodd">
        <g fill-rule="nonzero">
            <g>
                <g>
                    <g>
                        <path fill="#FBB451" d="M22.312 12.789c7.835-1.127 15.902-.351 23.67-1.897 8.125-1.618 15.524-5.69 23.356-8.395 7.832-2.704 16.877-3.92 24.143.043 4.448 2.429 7.722 6.541 10.29 10.892 5.061 8.58 7.805 18.308 7.965 28.244.073 4.926-.505 9.886-2.031 14.577-5.102 15.674-20.542 26.522-36.824 29.867-17.88 3.676-37.323-.804-51.762-11.871C8.824 64.808-3.334 47.976.836 32.644c2.765-10.196 9.73-18.166 21.476-19.855z" opacity=".18" transform="translate(-72 -736) translate(0 544) translate(72 192) translate(0 12.174)"/>
                        <path fill="#FBB451" d="M94.024 12.967L84.06 27.028l-1.915-5.262c-6.613 1.74-13.124 3.842-19.503 6.297-7.353 2.9-14.433 6.504-16.467 10.228-4.664 8.555 6.29 12.337 6.29 12.337-2.083.166-4.179.115-6.253-.149-5.464-.71-12.248-3.33-10.284-12.188 1.553-6.998 11.66-12.883 21.59-17.076h.014c1.451-.61 2.902-1.181 4.312-1.725l.04-.017c5.313-2.011 10.73-3.738 16.23-5.173l-.954-4.604 16.865 3.27z" transform="translate(-72 -736) translate(0 544) translate(72 192) translate(0 12.174)"/>
                        <path fill="url(#q6a1o1vm1a)" d="M46.174 38.291c-4.664 8.555 6.29 12.337 6.29 12.337-2.083.166-4.179.115-6.253-.149-.82-.947-1.588-1.938-2.298-2.969-6.288-9.058 7.2-16.197 7.2-16.197 1.122-4.06 6.404-7.42 6.404-7.42v-2.678h.014l4.312-1.725.04-.017.95 7.851-.192.733c-7.353 2.906-14.433 6.51-16.467 10.234z" transform="translate(-72 -736) translate(0 544) translate(72 192) translate(0 12.174)"/>
                        <path fill="#B2857F" d="M76.753 67.834c-.266.447-.43.947-.482 1.463.009.517.178 1.018.485 1.437.63.925 1.595 1.575 2.695 1.813.144.044.3.037.438-.02.096-.058.17-.144.212-.247.264-.532.157-1.164-.017-1.724s-.412-1.13-.386-1.725c.043-1.112 1.648-3.259-.22-3.782-1.559-.448-2.23 1.794-2.725 2.785z" transform="translate(-72 -736) translate(0 544) translate(72 192) translate(0 12.174)"/>
                        <path fill="#FBB451" d="M75.656 69.285s-.552.449-.447.943c.104.494 2.086 3.94 4.91 3.546 2.823-.393-1.814-3.16-1.814-3.16l-2.65-1.329z" transform="translate(-72 -736) translate(0 544) translate(72 192) translate(0 12.174)"/>
                        <path fill="#FFF" d="M76.509 68.012c.239.009.435.19.461.426.15.667.637 1.21 1.289 1.437.737.198 1.41-.411 1.74-.239.332.172 1.26 2.572 1.016 3.256-.243.684-1.387.667-2.402.198-1.016-.468-2.867-2.339-3.01-3.077-.142-.739.503-1.802.906-2z" transform="translate(-72 -736) translate(0 544) translate(72 192) translate(0 12.174)"/>
                        <path fill="#B2857F" d="M64.78 71.809c-.274.51-.432 1.073-.464 1.65.04.568.252 1.112.609 1.56.745 1 1.851 1.677 3.087 1.89.162.043.334.028.485-.042.102-.072.18-.172.226-.288.267-.603.114-1.302-.104-1.922-.218-.621-.508-1.233-.52-1.888 0-1.236 1.675-3.705-.426-4.196-1.756-.411-2.394 2.112-2.893 3.236z" transform="translate(-72 -736) translate(0 544) translate(72 192) translate(0 12.174)"/>
                        <path fill="#FBB451" d="M63.628 73.496s-.58.526-.45 1.069c.13.543 2.504 4.282 5.627 3.707 3.122-.575-2.165-3.406-2.165-3.406l-3.012-1.37z" transform="translate(-72 -736) translate(0 544) translate(72 192) translate(0 12.174)"/>
                        <path fill="#FFF" d="M64.513 72.024c.268-.003.498.191.537.454.197.733.765 1.311 1.5 1.526.83.184 1.552-.52 1.918-.347.366.172 1.526 2.802 1.283 3.569-.244.767-1.512.807-2.664.336-1.152-.471-3.302-2.466-3.482-3.279-.18-.813.47-2.017.908-2.259z" transform="translate(-72 -736) translate(0 544) translate(72 192) translate(0 12.174)"/>
                        <path fill="#473F47" d="M71.039 41.837c.079.014.157.034.232.06 1.834.69 4.042 3.765 5.29 5.225 1.622 1.85 2.972 3.916 4.01 6.139 2.107 4.658 2.302 10.446-.658 14.625l-2.275-.471c-.199-.022-.386-.103-.537-.233-.157-.228-.213-.51-.154-.779.12-1.61.045-3.228-.223-4.82-.15-1.09-.488-2.148-.999-3.126-.713-1.273-1.84-2.259-2.936-3.225-3.482-3.055-6.605-6.213-8.331-10.532 1.558-.759 4.9-3.156 6.581-2.863z" transform="translate(-72 -736) translate(0 544) translate(72 192) translate(0 12.174)"/>
                        <path fill="#473F47" d="M65.77 44.182c.074.03.146.069.211.115 1.622 1.092 3.047 4.599 3.918 6.3 1.14 2.174 1.966 4.496 2.455 6.897.948 5.015-.221 10.688-4.083 14.082l-2.104-.986c-.187-.067-.35-.188-.467-.348-.099-.259-.086-.546.035-.796.496-1.537.804-3.128.917-4.739.11-1.095.031-2.201-.236-3.27-.391-1.4-1.256-2.618-2.095-3.814-2.655-3.77-4.959-7.566-5.62-12.165 1.691-.379 5.507-1.937 7.068-1.276z" transform="translate(-72 -736) translate(0 544) translate(72 192) translate(0 12.174)"/>
                        <path fill="#FFF" d="M75.22 33.236c.002.012.002.025 0 .037.027.48.186.903.061 1.391-.133.543-.644 1.035-1.2.954-.465-.066-.781-.48-1.138-.781-.374-.296-.788-.538-1.23-.719-.581-.267-1.179-.517-1.777-.747-.383-.15-1.114-.241-1.276-.63-.163-.387-.11-1-.157-1.41l-.723-6.521 6.724 5.46c.276.597.49 1.22.641 1.86.064.365.09.736.076 1.106z" transform="translate(-72 -736) translate(0 544) translate(72 192) translate(0 12.174)"/>
                        <path fill="#FFF" d="M70.23 33.954c.04.386.13.768.176 1.15.244 2.124-.02 4.374.85 6.389.198.448.453.925.337 1.402-.142.404-.427.743-.804.954-1.775 1.23-3.931 1.779-6.032 2.3-1.582.396-3.807 1.117-5.386.422-.673-.288-.963-.955-1.24-1.61-.87-2.086-1.328-4.385-1.74-6.61-.052-.287-.108-.574-.157-.876-.342-2.006-.61-4.03-.804-6.07-.133-1.483-.194-3.092.66-4.31 1.13-1.627 3.528-2.874 5.393-3.449.604-.192 1.233-.296 1.866-.308.903.042 1.792.237 2.63.575.995.36 1.88.658 2.446 1.532.627 1.015 1.107 2.112 1.427 3.259.301 1.074.45 2.184.444 3.3 0 .545-.075 1.097-.072 1.64-.01.103-.008.207.005.31z" transform="translate(-72 -736) translate(0 544) translate(72 192) translate(0 12.174)"/>
                        <path fill="#020202" d="M62.8 46.944c-.603.25-2.1-.16-2.585-.192-.29-.018-.58-.133-.87-.167-1.451-.198-2.07-4.135-2.322-5.173-.679-2.773-1.567-5.624-1.92-8.44-.134-1.09-.23-2.202.017-3.268.247-1.066.87-2.095 1.872-2.586 1.74-.845 2.916 4.785 3.296 5.934.476 1.437.955 2.874 1.428 4.31.209.645.275 1.36.632 1.95.543.893 1.001.723 1.91.574 1.906-.328 3.688-1.13 5.565-1.578.156-.057.33-.05.479.023.101.083.17.198.194.325.111.363.172.739.18 1.118.011.108-.005.218-.046.319-.066.103-.156.188-.264.247-1.27.831-2.663 1.459-4.13 1.86-1.16.321-2.26.862-3.043 1.822-.706.862.211 1.77-.172 2.704-.04.1-.12.178-.22.218z" opacity=".1" transform="translate(-72 -736) translate(0 544) translate(72 192) translate(0 12.174)"/>
                        <path fill="#FBB451" d="M61.478 42.602L72.603 38.886 80.763 43.496 69.408 48.105z" transform="translate(-72 -736) translate(0 544) translate(72 192) translate(0 12.174)"/>
                        <path fill="url(#vbh8gtu3sb)" d="M61.478 42.602L72.603 38.886 80.763 43.496 69.408 48.105z" transform="translate(-72 -736) translate(0 544) translate(72 192) translate(0 12.174)"/>
                        <path fill="#FBB451" d="M61.936 42.007L73.062 38.291 81.221 42.901 69.867 47.51z" transform="translate(-72 -736) translate(0 544) translate(72 192) translate(0 12.174)"/>
                        <path fill="url(#ghpjuttlbc)" d="M70.412 46.875L79.617 42.849 75.125 40.406 65.973 43.838z" transform="translate(-72 -736) translate(0 544) translate(72 192) translate(0 12.174)"/>
                        <path fill="#FBB451" d="M69.867 47.51L80.838 47.51 90.284 41.685 81.221 42.901z" transform="translate(-72 -736) translate(0 544) translate(72 192) translate(0 12.174)"/>
                        <path fill="#B2857F" d="M66.123 20.81c-.113.405-.235.81-.365 1.212-.29.92-.87 1.759-1.88 1.98-.224.043-.45.07-.677.08h-.15c-.007.004-.014.004-.02 0h-.027c-.113-.004-.227.007-.337.035-.03.002-.06.01-.087.026-.29.132-.267.598-.246.862.071.298.036.61-.099.885 0 0 0 .018-.017.03-.163.175-.39.278-.63.287-.5.04-.997-.11-1.39-.42-.225-.207-.405-.456-.531-.733-.04-.079-.072-.16-.099-.244-.033-.142-.045-.288-.037-.434.005-.224.026-.446.063-.667.107-.435.192-.875.253-1.319.004-.225.02-.45.046-.672.037-.143.065-.288.082-.434 0-.423-.218-.83-.221-1.26-.004-.423.036-.845.119-1.26.155-.825.517-1.597 1.053-2.245.996-1.15 2.76-1.724 4.147-1.07.693.328 1.23.91 1.5 1.622.464 1.21-.116 2.557-.45 3.738zM64.678 41.556c.244-.029.49-.055.734-.075.146-.02.294-.011.436.026.142.037.253.147.29.287-.002.053.01.105.032.153.037.042.089.07.145.077.87.224 1.77.575 2.29 1.285.125.136.17.329.116.506-.12.241-.468.207-.729.135.077.108.077.253 0 .362-.08.106-.206.166-.34.16-.086-.015-.174-.015-.26 0-.06.028-.114.064-.163.107-.247.162-.55.216-.839.15-.29-.044-.58-.141-.87-.164-.45-.035-.853.112-1.271-.07-.46-.225-.948-.393-1.451-.5-.16-.025-.307-.1-.42-.215-.1-.197-.1-.43 0-.626.074-.353.21-.69.4-.998.246-.344.658-.405 1.062-.474.296-.049.56-.086.838-.126z" transform="translate(-72 -736) translate(0 544) translate(72 192) translate(0 12.174)"/>
                        <path fill="#FFF" d="M56.083 27.092c-2.133 3.497-4.24 7.55-4.846 11.624-.16 1.072-.246 2.337.261 3.343.83 1.638 3.654 1.957 5.279 2.12 1.946.196 3.905.222 5.856.078.086.016.175-.011.237-.074.062-.062.088-.15.07-.236l.081-1.86c.014-.086.002-.175-.034-.255-.104-.12-.258-.182-.415-.17-1.137-.09-2.254-.347-3.314-.761-1.007-.397-2.975-1.437-2.832-2.748.078-.736.893-1.632 1.297-2.213.969-1.394 2.014-2.744 3.081-4.066 0 0 .105-7.521-4.72-4.782z" transform="translate(-72 -736) translate(0 544) translate(72 192) translate(0 12.174)"/>
                        <path fill="#473F47" d="M65.79 19.12c.292-.067.54-.254.685-.515.119.33.681.23.824-.095.142-.324 0-.692-.128-1.017.27-.063.491-.257.586-.516.095-.26.051-.548-.116-.769-.096-.106-.23-.198-.255-.342-.007-.109.01-.219.049-.321.037-.344-.115-.68-.398-.883-.285-.195-.603-.337-.94-.42.187-.3.119-.692-.16-.913-.274-.208-.608-.327-.954-.34-.502-.054-1.056-.03-1.45.288-.555-.34-1.273-.265-1.742.184-.081.111-.194.196-.325.241-.093.007-.187-.009-.273-.046-.366-.154-.77-.196-1.16-.117-.405.095-.668.48-.607.888-.295.035-.537.248-.606.534-.007.088-.035.173-.082.247-.084.098-.232.092-.357.104-.493.042-.87.454-.866.945.005.49.39.895.884.929-.056.233-.01.479.125.678.153.244.36.261.563.414.119.092.072.1.066.287-.006.172.003.344.026.514.04.329.123.65.247.957.087.222.197.434.276.659.108.343.18.696.215 1.054l.49-1.373c.005-.02.005-.04 0-.058-.01-.025-.028-.047-.052-.06-.44-.34-.583-.938-.343-1.437.067-.155.21-.264.377-.288.198 0 .349.17.444.34.102.18.18.373.23.574.132-.314.316-.605.542-.862.096-.106.212-.287.366-.233.154.055.226.33.29.431.229-.088.437-.22.612-.39-.04.407.16.8.517 1.008.366.17.897-.072.897-.474 0 .181.792-.123.85-.158.125.238.383.376.653.35z" transform="translate(-72 -736) translate(0 544) translate(72 192) translate(0 12.174)"/>
                        <path fill="#96625E" d="M61.962 24.097c.234.03.47.04.705.029-.03.001-.06.01-.087.026-.29.132-.267.598-.246.862.071.297.036.61-.099.885-.09 0-.18-.012-.267-.037-.089-.031-.17-.08-.24-.141-.54-.439-.755-1.157-.546-1.816.25.095.513.16.78.192z" transform="translate(-72 -736) translate(0 544) translate(72 192) translate(0 12.174)"/>
                        <path fill="#FFF" d="M73.462 29.428s5.313 3.883 4.579 7.76c-.682 3.606-1.294 6.474-1.294 6.474l-2.487-1.437s1.663-5.434-1.808-7.796c-3.47-2.363 1.01-5 1.01-5z" transform="translate(-72 -736) translate(0 544) translate(72 192) translate(0 12.174)"/>
                        <path fill="#B2857F" d="M73.819 42.17l-.238 1.222c-.042.155-.048.317-.017.474.033.162.173.28.34.288.173 0 .321-.19.495-.155.062.018.121.046.174.083.372.201.822 0 1.213-.181.063-.035.135-.048.206-.038.085.023.137.107.21.159.148.088.336.077.472-.03.132-.107.232-.248.29-.407.318-.69.26-1.494-.153-2.133-.454-.555-1.177-.822-1.886-.695-.755.118-.97.704-1.106 1.414z" transform="translate(-72 -736) translate(0 544) translate(72 192) translate(0 12.174)"/>
                        <path fill="#FBB451" d="M69.408 48.105L80.38 48.105 89.825 42.28 80.763 43.496z" transform="translate(-72 -736) translate(0 544) translate(72 192) translate(0 12.174)"/>
                        <path fill="url(#a66vg6lfed)" d="M69.867 47.51L69.408 48.105 80.38 48.105 80.838 47.51z" transform="translate(-72 -736) translate(0 544) translate(72 192) translate(0 12.174)"/>
                        <path fill="#FBB451" d="M90.284 41.685L89.825 42.28 80.38 48.105 80.838 47.51z" transform="translate(-72 -736) translate(0 544) translate(72 192) translate(0 12.174)"/>
                        <path fill="url(#tldyp0dixe)" d="M90.284 41.685L89.825 42.28 80.38 48.105 80.838 47.51z" transform="translate(-72 -736) translate(0 544) translate(72 192) translate(0 12.174)"/>
                        <path fill="#FFF" d="M81.332 43.159L88.836 42.122 81.01 46.875 72.47 47.022z" transform="translate(-72 -736) translate(0 544) translate(72 192) translate(0 12.174)"/>
                        <path fill="url(#oppd5c8uqf)" d="M68.546 42.516L72.795 40.955 70.746 39.472 66.387 40.955z" transform="translate(-72 -736) translate(0 544) translate(72 192) translate(0 12.174)"/>
                    </g>
                    <g fill="#FA9E1F">
                        <path d="M15.532 24.348v-3.11h-4.467V0H7.577L0 6.306l1.34 1.799c.092.123.232.232.421.328.19.095.398.143.627.143.15 0 .3-.023.456-.068.154-.045.306-.129.455-.252L6.873 5.33c-.035.606-.052 1.183-.052 1.732v14.175H1.787v3.11h13.745z" transform="translate(-72 -736) translate(0 544) translate(72 192) translate(15.217 12.174)"/>
                    </g>
                </g>
            </g>
        </g>
    </g>
</svg>
